<svg xmlns="http://www.w3.org/2000/svg" width="12.952" height="17" viewBox="0 0 12.952 17">
  <path id="Icon_material-lock" data-name="Icon material-lock" d="M17.333,7.167h-.81V5.548a4.048,4.048,0,0,0-8.1,0V7.167h-.81A1.624,1.624,0,0,0,6,8.786v8.1A1.624,1.624,0,0,0,7.619,18.5h9.714a1.624,1.624,0,0,0,1.619-1.619v-8.1A1.624,1.624,0,0,0,17.333,7.167Zm-4.857,7.286A1.619,1.619,0,1,1,14.1,12.833,1.624,1.624,0,0,1,12.476,14.452Zm2.51-7.286H9.967V5.548a2.51,2.51,0,0,1,5.019,0Z" transform="translate(-6 -1.5)" fill="#fff"/>
</svg>
