<svg xmlns="http://www.w3.org/2000/svg" xmlns:xlink="http://www.w3.org/1999/xlink" width="59.616" height="59.616" viewBox="0 0 59.616 59.616">
  <defs>
    <clipPath id="clip-path">
      <ellipse id="楕円形_353" data-name="楕円形 353" cx="29.808" cy="29.808" rx="29.808" ry="29.808" transform="translate(1348.392 3998.78)" fill="#fff" stroke="#009ea7" stroke-width="1"/>
    </clipPath>
  </defs>
  <g id="グループ_26701" data-name="グループ 26701" transform="translate(-1276.384 -3998.78)">
    <g id="楕円形_329" data-name="楕円形 329" transform="translate(1276.384 3998.78)" fill="#fff" stroke="#009ea7" stroke-width="1">
      <ellipse cx="29.808" cy="29.808" rx="29.808" ry="29.808" stroke="none"/>
      <ellipse cx="29.808" cy="29.808" rx="29.308" ry="29.308" fill="none"/>
    </g>
    <g id="マスクグループ_218" data-name="マスクグループ 218" transform="translate(-72.008)" clip-path="url(#clip-path)">
      <g id="グループ_26695" data-name="グループ 26695" transform="translate(-13846.172 -639.59)">
        <path id="パス_7293" data-name="パス 7293" d="M107.87,753.614c0,7.261-5.4,13.147-12.066,13.147s-12.066-5.886-12.066-13.147,2.674-14.742,12.066-14.742C104.982,738.872,107.87,746.354,107.87,753.614Z" transform="translate(15128.619 3907.33)" fill="#009ea7"/>
        <g id="グループ_26645" data-name="グループ 26645" transform="translate(15202 4654.699)">
          <path id="パス_7294" data-name="パス 7294" d="M75.394,815.21c-4.362-3.877-11.91-4.871-13.95-6.639a2.469,2.469,0,0,1-.83-1.877v-.178a4.224,4.224,0,0,1,1.458-2.879,9.3,9.3,0,0,0,2.915-5.741,1.642,1.642,0,0,0,1.346-.224c1.749-1.256,3.14-4.889,3.23-6.549.085-1.579-.607-2.135-2.063-2.018-1.121.09-2.63,1.673-2.6,1.615a33.085,33.085,0,0,0-.4-7.625l-8,.059-8-.059a33.085,33.085,0,0,0-.4,7.625c.029.058-1.48-1.525-2.6-1.615-1.457-.116-2.149.439-2.063,2.018.09,1.66,1.48,5.293,3.23,6.549a1.642,1.642,0,0,0,1.346.224,9.3,9.3,0,0,0,2.915,5.741,4.224,4.224,0,0,1,1.458,2.879v.178a2.469,2.469,0,0,1-.83,1.877c-2.039,1.768-9.588,2.761-13.95,6.639-3.633,3.23-3.005,10.406-3.005,10.406H78.4S79.027,818.44,75.394,815.21Z" transform="translate(-34.127 -782.665)" fill="#fff"/>
          <path id="パス_7295" data-name="パス 7295" d="M76.7,824.35H32.9a.429.429,0,0,1-.428-.392,20.338,20.338,0,0,1,.142-4.087c.409-3.021,1.42-5.268,3.005-6.677,2.677-2.379,6.484-3.685,9.544-4.734a16.236,16.236,0,0,0,4.41-1.908,2.054,2.054,0,0,0,.682-1.559v-.172a3.824,3.824,0,0,0-1.316-2.56,9.706,9.706,0,0,1-3-5.577,1.989,1.989,0,0,1-1.224-.359c-1.833-1.315-3.308-5.019-3.408-6.874a2.054,2.054,0,0,1,2.526-2.469A4.034,4.034,0,0,1,45.875,788a38.517,38.517,0,0,1,.5-6.67.429.429,0,0,1,.423-.359h0l8,.059,7.989-.059h0a.429.429,0,0,1,.423.359,38.517,38.517,0,0,1,.5,6.67,4.034,4.034,0,0,1,2.043-1.017,2.054,2.054,0,0,1,2.526,2.469c-.1,1.855-1.575,5.559-3.408,6.874a1.984,1.984,0,0,1-1.224.359,9.705,9.705,0,0,1-3,5.577,3.827,3.827,0,0,0-1.316,2.578V805a2.05,2.05,0,0,0,.682,1.553,16.239,16.239,0,0,0,4.41,1.908c3.06,1.049,6.867,2.355,9.544,4.734,1.586,1.409,2.6,3.656,3.005,6.677a20.338,20.338,0,0,1,.142,4.087A.429.429,0,0,1,76.7,824.35Zm0-.429h0Zm-43.4-.429h42.99c.062-1.515.07-7.03-2.885-9.657h0c-2.548-2.265-6.265-3.54-9.252-4.564a16.073,16.073,0,0,1-4.694-2.071,2.91,2.91,0,0,1-.978-2.195v-.185a4.64,4.64,0,0,1,1.6-3.2,8.944,8.944,0,0,0,2.775-5.452.429.429,0,0,1,.556-.38,1.2,1.2,0,0,0,.967-.164c1.559-1.12,2.962-4.567,3.051-6.223a1.681,1.681,0,0,0-.307-1.3,1.645,1.645,0,0,0-1.294-.27c-.3.024-.99.241-2.256,1.424a.472.472,0,0,1-.637.109.431.431,0,0,1-.167-.415,30.663,30.663,0,0,0-.348-7.124l-7.625.056-7.631-.056a30.666,30.666,0,0,0-.348,7.124.431.431,0,0,1-.167.415.472.472,0,0,1-.637-.109c-1.265-1.183-1.956-1.4-2.256-1.424a1.646,1.646,0,0,0-1.294.27,1.681,1.681,0,0,0-.307,1.3c.089,1.657,1.492,5.1,3.051,6.224a1.2,1.2,0,0,0,.97.162.434.434,0,0,1,.368.059.429.429,0,0,1,.185.322,8.946,8.946,0,0,0,2.775,5.451,4.635,4.635,0,0,1,1.6,3.179v.2a2.914,2.914,0,0,1-.978,2.2,16.068,16.068,0,0,1-4.694,2.071c-2.987,1.024-6.7,2.3-9.252,4.564C33.233,816.462,33.241,821.976,33.3,823.491Z" transform="translate(-32.426 -780.969)" fill="#009ea7"/>
        </g>
        <g id="グループ_26646" data-name="グループ 26646" transform="translate(15217.178 4678.875)">
          <path id="パス_7296" data-name="パス 7296" d="M112.2,902.872l4.321,4.264-2.209,5.155-4.566-6.937Z" transform="translate(-109.32 -902.443)" fill="#fff"/>
          <path id="パス_7297" data-name="パス 7297" d="M112.619,911.024a.429.429,0,0,1-.358-.193l-4.566-6.937a.429.429,0,0,1,.053-.538l2.455-2.482a.429.429,0,0,1,.607,0l4.321,4.264a.429.429,0,0,1,.093.474l-2.209,5.155a.429.429,0,0,1-.356.258Zm-4.016-7.312,3.936,5.98,1.78-4.153-3.807-3.758Z" transform="translate(-107.623 -900.746)" fill="#009ea7"/>
        </g>
        <g id="グループ_26647" data-name="グループ 26647" transform="translate(15223.953 4678.875)">
          <path id="パス_7298" data-name="パス 7298" d="M147.638,902.872l-4.321,4.264,2.209,5.155,4.566-6.937Z" transform="translate(-142.888 -902.443)" fill="#fff"/>
          <path id="パス_7299" data-name="パス 7299" d="M143.83,911.024l-.038,0a.429.429,0,0,1-.356-.258l-2.209-5.155a.429.429,0,0,1,.093-.474l4.321-4.264a.429.429,0,0,1,.607,0l2.455,2.482a.429.429,0,0,1,.053.538l-4.566,6.937A.429.429,0,0,1,143.83,911.024Zm-1.7-5.484,1.78,4.153,3.936-5.98-1.909-1.93Z" transform="translate(-141.191 -900.746)" fill="#009ea7"/>
        </g>
        <path id="パス_7300" data-name="パス 7300" d="M134.317,927.942l.807,2.557h1.884l.673-2.557L136.134,924Z" transform="translate(15088.249 3759.571)" fill="#009ea7"/>
        <path id="パス_7301" data-name="パス 7301" d="M133,956.205l-1.346,3.23,1.3,4.351h1.884L136,959.435l-1.121-3.23Z" transform="translate(15090.377 3733.865)" fill="#009ea7"/>
        <path id="パス_7302" data-name="パス 7302" d="M49.059,913.594,55.6,929.776H33.533s-.907-8.6,5.053-11.842A65.257,65.257,0,0,1,49.059,913.594Z" transform="translate(15168.729 3767.875)" fill="#009ea7"/>
        <path id="パス_7303" data-name="パス 7303" d="M150.363,913.594l-6.546,16.182h22.072s.907-8.6-5.053-11.842A65.264,65.264,0,0,0,150.363,913.594Z" transform="translate(15080.667 3767.875)" fill="#009ea7"/>
        <path id="パス_7304" data-name="パス 7304" d="M101.647,777.6s-1.183,3.8.067,2.546c.942-.942,3.117.873,3.8,1.144a41.042,41.042,0,0,0,12.817,2.994l-.135-8.074Z" transform="translate(15114.729 3877.531)" fill="#009ea7"/>
      </g>
    </g>
  </g>
</svg>
