<svg xmlns="http://www.w3.org/2000/svg" xmlns:xlink="http://www.w3.org/1999/xlink" width="59.616" height="59.616" viewBox="0 0 59.616 59.616">
  <defs>
    <clipPath id="clip-path">
      <ellipse id="楕円形_348" data-name="楕円形 348" cx="29.808" cy="29.808" rx="29.808" ry="29.808" transform="translate(1342.563 3112.704)" fill="#fff" stroke="#1b6ec3" stroke-width="1"/>
    </clipPath>
  </defs>
  <g id="グループ_26683" data-name="グループ 26683" transform="translate(-1276.384 -3114.704)">
    <g id="マスクグループ_211" data-name="マスクグループ 211" transform="translate(-66.18 2)" clip-path="url(#clip-path)">
      <g id="グループ_26681" data-name="グループ 26681" transform="translate(-13898.828 -1523.759)">
        <path id="パス_7305" data-name="パス 7305" d="M339.87,753.614c0,7.261-5.4,13.147-12.066,13.147s-12.066-5.886-12.066-13.147,2.674-14.742,12.066-14.742C336.981,738.872,339.87,746.354,339.87,753.614Z" transform="translate(14943.448 3907.33)" fill="#1b6ec3"/>
        <g id="グループ_26648" data-name="グループ 26648" transform="translate(15248.828 4654.699)">
          <path id="パス_7306" data-name="パス 7306" d="M307.393,815.21c-4.362-3.877-11.91-4.871-13.95-6.639a2.468,2.468,0,0,1-.83-1.877v-.178a4.222,4.222,0,0,1,1.458-2.879,9.3,9.3,0,0,0,2.916-5.741,1.642,1.642,0,0,0,1.346-.224c1.749-1.256,3.14-4.889,3.23-6.549.085-1.579-.607-2.135-2.063-2.018-1.121.09-2.63,1.673-2.6,1.615a33.086,33.086,0,0,0-.4-7.625l-8,.059-8-.059a33.085,33.085,0,0,0-.4,7.625c.029.058-1.48-1.525-2.6-1.615-1.456-.116-2.149.439-2.063,2.018.09,1.66,1.48,5.293,3.23,6.549a1.642,1.642,0,0,0,1.346.224,9.3,9.3,0,0,0,2.915,5.741,4.222,4.222,0,0,1,1.458,2.879v.178a2.468,2.468,0,0,1-.83,1.877c-2.039,1.768-9.588,2.761-13.95,6.639-3.633,3.23-3.005,10.406-3.005,10.406h43.8S311.026,818.44,307.393,815.21Z" transform="translate(-266.126 -782.665)" fill="#fff"/>
          <path id="パス_7307" data-name="パス 7307" d="M308.7,824.35H264.9a.429.429,0,0,1-.428-.392,20.331,20.331,0,0,1,.143-4.087c.408-3.021,1.419-5.268,3.005-6.677,2.677-2.379,6.484-3.685,9.544-4.734a16.236,16.236,0,0,0,4.41-1.908,2.052,2.052,0,0,0,.682-1.559v-.172a3.823,3.823,0,0,0-1.315-2.56,9.705,9.705,0,0,1-3-5.577,1.983,1.983,0,0,1-1.224-.359c-1.832-1.315-3.307-5.019-3.408-6.874a2.054,2.054,0,0,1,2.526-2.469A4.036,4.036,0,0,1,277.875,788a38.5,38.5,0,0,1,.5-6.67.429.429,0,0,1,.423-.359h0l8,.059,7.989-.059h0a.429.429,0,0,1,.423.359,38.548,38.548,0,0,1,.5,6.67,4.035,4.035,0,0,1,2.043-1.017,2.054,2.054,0,0,1,2.526,2.469c-.1,1.855-1.575,5.558-3.408,6.874a1.987,1.987,0,0,1-1.224.359,9.7,9.7,0,0,1-3,5.577,3.827,3.827,0,0,0-1.316,2.578V805a2.05,2.05,0,0,0,.682,1.553,16.244,16.244,0,0,0,4.41,1.908c3.06,1.049,6.867,2.355,9.544,4.734h0c1.586,1.409,2.6,3.656,3.005,6.677a20.364,20.364,0,0,1,.142,4.087A.429.429,0,0,1,308.7,824.35Zm0-.429h0Zm-43.4-.429h42.99c.062-1.515.07-7.03-2.885-9.657h0c-2.548-2.265-6.265-3.54-9.252-4.564a16.073,16.073,0,0,1-4.694-2.071,2.909,2.909,0,0,1-.978-2.195v-.185a4.64,4.64,0,0,1,1.6-3.2,8.944,8.944,0,0,0,2.774-5.452.429.429,0,0,1,.556-.38,1.2,1.2,0,0,0,.967-.164c1.559-1.12,2.962-4.567,3.051-6.223a1.681,1.681,0,0,0-.307-1.3,1.642,1.642,0,0,0-1.294-.27c-.3.024-.99.241-2.255,1.424a.473.473,0,0,1-.637.109.431.431,0,0,1-.167-.415,30.668,30.668,0,0,0-.348-7.124l-7.625.056-7.631-.056a30.669,30.669,0,0,0-.348,7.124.431.431,0,0,1-.167.415.473.473,0,0,1-.637-.109c-1.266-1.183-1.956-1.4-2.256-1.424a1.641,1.641,0,0,0-1.294.27,1.681,1.681,0,0,0-.307,1.3c.089,1.657,1.492,5.1,3.051,6.223a1.213,1.213,0,0,0,.967.164.429.429,0,0,1,.556.38,8.946,8.946,0,0,0,2.775,5.451,4.634,4.634,0,0,1,1.6,3.179v.2a2.912,2.912,0,0,1-.978,2.2,16.071,16.071,0,0,1-4.694,2.071c-2.987,1.024-6.7,2.3-9.252,4.564C265.233,816.462,265.241,821.976,265.3,823.491Z" transform="translate(-264.427 -780.969)" fill="#1b6ec3"/>
        </g>
        <g id="グループ_26649" data-name="グループ 26649" transform="translate(15264.007 4678.875)">
          <path id="パス_7308" data-name="パス 7308" d="M344.2,902.872l4.321,4.264-2.209,5.155-4.566-6.937Z" transform="translate(-341.32 -902.443)" fill="#fff"/>
          <path id="パス_7309" data-name="パス 7309" d="M344.618,911.024a.428.428,0,0,1-.358-.193l-4.566-6.937a.429.429,0,0,1,.053-.538l2.455-2.482a.429.429,0,0,1,.607,0l4.321,4.264a.429.429,0,0,1,.093.474l-2.209,5.155a.428.428,0,0,1-.356.258Zm-4.017-7.312,3.936,5.98,1.78-4.153-3.807-3.758Z" transform="translate(-339.623 -900.746)" fill="#1b6ec3"/>
        </g>
        <g id="グループ_26650" data-name="グループ 26650" transform="translate(15270.782 4678.875)">
          <path id="パス_7310" data-name="パス 7310" d="M379.637,902.872l-4.321,4.264,2.209,5.155,4.566-6.937Z" transform="translate(-374.887 -902.443)" fill="#fff"/>
          <path id="パス_7311" data-name="パス 7311" d="M375.829,911.024l-.038,0a.428.428,0,0,1-.356-.258l-2.21-5.155a.429.429,0,0,1,.093-.474l4.321-4.264a.429.429,0,0,1,.606,0l2.455,2.482a.429.429,0,0,1,.053.538l-4.566,6.937A.428.428,0,0,1,375.829,911.024Zm-1.7-5.484,1.78,4.153,3.936-5.98-1.909-1.93Z" transform="translate(-373.19 -900.746)" fill="#1b6ec3"/>
        </g>
        <path id="パス_7312" data-name="パス 7312" d="M366.317,927.942l.807,2.557h1.884l.673-2.557L368.133,924Z" transform="translate(14903.078 3759.571)" fill="#1b6ec3"/>
        <path id="パス_7313" data-name="パス 7313" d="M365,956.205l-1.346,3.23,1.3,4.351h1.884L368,959.435l-1.121-3.23Z" transform="translate(14905.206 3733.865)" fill="#1b6ec3"/>
        <path id="パス_7314" data-name="パス 7314" d="M349.4,778.481s1.288,4.653.269,3.095c-2.288-3.5-7.8.392-10.451.9-1.884.359-3.6,1-4.575,1.166-1.231.209-1.436,1.884-1.436,1.884l-.224-7.984Z" transform="translate(14929.684 3876.468)" fill="#1b6ec3"/>
        <path id="パス_7315" data-name="パス 7315" d="M413.633,813.949l-.538,4.037,2.332-5.113Z" transform="translate(14865.742 3848.266)" fill="#1b6ec3"/>
        <path id="パス_7316" data-name="パス 7316" d="M327.666,813.949l.538,4.037-2.332-5.113Z" transform="translate(14935.358 3848.266)" fill="#1b6ec3"/>
      </g>
    </g>
    <g id="楕円形_317" data-name="楕円形 317" transform="translate(1276.384 3114.704)" fill="none" stroke="#1b6ec3" stroke-width="1">
      <ellipse cx="29.808" cy="29.808" rx="29.808" ry="29.808" stroke="none"/>
      <ellipse cx="29.808" cy="29.808" rx="29.308" ry="29.308" fill="none"/>
    </g>
  </g>
</svg>
