<svg xmlns="http://www.w3.org/2000/svg" xmlns:xlink="http://www.w3.org/1999/xlink" width="59.616" height="59.616" viewBox="0 0 59.616 59.616">
  <defs>
    <clipPath id="clip-path">
      <ellipse id="楕円形_350" data-name="楕円形 350" cx="29.808" cy="29.808" rx="29.808" ry="29.808" transform="translate(1332.948 3427.396)" fill="#fff" stroke="#008bba" stroke-width="1"/>
    </clipPath>
  </defs>
  <g id="グループ_26693" data-name="グループ 26693" transform="translate(-1276.384 -3436.589)">
    <g id="マスクグループ_214" data-name="マスクグループ 214" transform="translate(-56.564 9.192)" clip-path="url(#clip-path)">
      <g id="グループ_26688" data-name="グループ 26688" transform="translate(-14009.367 -1209.411)">
        <path id="パス_7339" data-name="パス 7339" d="M840.887,752.614c0,7.261-5.5,13.147-12.286,13.147s-12.286-5.886-12.286-13.147,2.722-14.742,12.286-14.742C837.946,737.872,840.887,745.354,840.887,752.614Z" transform="translate(14543.91 3908.128)" fill="#008bba"/>
        <g id="グループ_26658" data-name="グループ 26658" transform="translate(15349.752 4654.497)">
          <path id="パス_7340" data-name="パス 7340" d="M807.392,814.21c-4.362-3.877-11.91-4.871-13.95-6.639a2.468,2.468,0,0,1-.83-1.877v-.178a4.222,4.222,0,0,1,1.458-2.879,9.3,9.3,0,0,0,2.915-5.741,1.643,1.643,0,0,0,1.346-.224c1.749-1.256,3.14-4.889,3.229-6.549.085-1.579-.607-2.135-2.063-2.018-1.121.09-2.63,1.673-2.6,1.615a33.086,33.086,0,0,0-.4-7.625l-8,.059-8-.059a33.086,33.086,0,0,0-.4,7.625c.029.058-1.48-1.525-2.6-1.615-1.456-.116-2.149.439-2.063,2.018.09,1.66,1.48,5.293,3.23,6.549a1.642,1.642,0,0,0,1.346.224,9.3,9.3,0,0,0,2.915,5.741,4.223,4.223,0,0,1,1.458,2.879v.178a2.468,2.468,0,0,1-.83,1.877c-2.039,1.768-9.588,2.761-13.95,6.639-3.633,3.23-3.005,10.406-3.005,10.406h43.8S811.025,817.44,807.392,814.21Z" transform="translate(-766.125 -781.665)" fill="#fff"/>
          <path id="パス_7341" data-name="パス 7341" d="M808.7,823.349H764.9a.429.429,0,0,1-.428-.392,20.331,20.331,0,0,1,.143-4.087c.409-3.021,1.42-5.268,3.005-6.678,2.677-2.379,6.484-3.685,9.544-4.734a16.238,16.238,0,0,0,4.41-1.908,2.052,2.052,0,0,0,.682-1.56v-.171a3.823,3.823,0,0,0-1.315-2.56,9.7,9.7,0,0,1-3-5.577,1.982,1.982,0,0,1-1.224-.359c-1.832-1.315-3.307-5.019-3.408-6.874a2.054,2.054,0,0,1,2.526-2.469A4.036,4.036,0,0,1,777.873,787a38.509,38.509,0,0,1,.5-6.67.429.429,0,0,1,.427-.359l8,.059,7.989-.059a.428.428,0,0,1,.427.359,38.546,38.546,0,0,1,.5,6.67,4.035,4.035,0,0,1,2.043-1.017,2.054,2.054,0,0,1,2.526,2.469c-.1,1.855-1.575,5.558-3.408,6.874a1.973,1.973,0,0,1-1.224.359,9.7,9.7,0,0,1-3,5.577,3.828,3.828,0,0,0-1.316,2.578V804a2.05,2.05,0,0,0,.682,1.553,16.239,16.239,0,0,0,4.41,1.908c3.059,1.049,6.867,2.355,9.544,4.734h0c1.586,1.41,2.6,3.656,3.005,6.678a20.368,20.368,0,0,1,.143,4.087A.429.429,0,0,1,808.7,823.349Zm0-.429h0Zm-43.4-.429h42.99c.062-1.515.07-7.03-2.885-9.657h0c-2.548-2.265-6.265-3.54-9.252-4.564a16.072,16.072,0,0,1-4.694-2.071,2.911,2.911,0,0,1-.978-2.195v-.185a4.641,4.641,0,0,1,1.6-3.2,8.944,8.944,0,0,0,2.774-5.452.43.43,0,0,1,.557-.38,1.2,1.2,0,0,0,.967-.164c1.559-1.119,2.962-4.567,3.051-6.223a1.681,1.681,0,0,0-.307-1.3,1.643,1.643,0,0,0-1.294-.27c-.3.024-.99.241-2.255,1.424a.473.473,0,0,1-.637.109.431.431,0,0,1-.167-.415,30.667,30.667,0,0,0-.348-7.124l-7.625.056-7.631-.056a30.674,30.674,0,0,0-.348,7.124.43.43,0,0,1-.167.415.473.473,0,0,1-.637-.109c-1.266-1.183-1.957-1.4-2.256-1.424a1.642,1.642,0,0,0-1.294.27,1.681,1.681,0,0,0-.307,1.3c.089,1.657,1.492,5.1,3.051,6.223a1.2,1.2,0,0,0,.971.162.432.432,0,0,1,.553.382,8.945,8.945,0,0,0,2.774,5.451,4.634,4.634,0,0,1,1.6,3.18v.2a2.912,2.912,0,0,1-.978,2.2,16.073,16.073,0,0,1-4.694,2.071c-2.987,1.024-6.7,2.3-9.252,4.564C765.231,815.461,765.239,820.976,765.3,822.491Z" transform="translate(-764.424 -779.969)" fill="#008bba"/>
        </g>
        <g id="グループ_26659" data-name="グループ 26659" transform="translate(15364.93 4678.674)">
          <path id="パス_7342" data-name="パス 7342" d="M844.2,901.872l4.321,4.264-2.209,5.155-4.566-6.937Z" transform="translate(-841.319 -901.443)" fill="#fff"/>
          <path id="パス_7343" data-name="パス 7343" d="M844.617,910.024a.428.428,0,0,1-.358-.193l-4.566-6.937a.429.429,0,0,1,.053-.538l2.455-2.482a.429.429,0,0,1,.607,0l4.321,4.264a.429.429,0,0,1,.093.474l-2.209,5.155a.428.428,0,0,1-.356.258Zm-4.017-7.312,3.936,5.98,1.78-4.153-3.807-3.758Z" transform="translate(-839.622 -899.746)" fill="#008bba"/>
        </g>
        <g id="グループ_26660" data-name="グループ 26660" transform="translate(15371.705 4678.674)">
          <path id="パス_7344" data-name="パス 7344" d="M879.636,901.872l-4.321,4.264,2.209,5.155,4.566-6.937Z" transform="translate(-874.886 -901.443)" fill="#fff"/>
          <path id="パス_7345" data-name="パス 7345" d="M875.828,910.024l-.038,0a.428.428,0,0,1-.356-.258l-2.21-5.155a.429.429,0,0,1,.093-.474l4.321-4.264a.429.429,0,0,1,.606,0l2.455,2.482a.429.429,0,0,1,.053.538l-4.566,6.937A.429.429,0,0,1,875.828,910.024Zm-1.7-5.484,1.78,4.153,3.936-5.98-1.909-1.93Z" transform="translate(-873.189 -899.746)" fill="#008bba"/>
        </g>
        <ellipse id="楕円形_341" data-name="楕円形 341" cx="0.538" cy="0.538" rx="0.538" ry="0.538" transform="translate(15371.574 4689.688)" fill="#008bba"/>
        <ellipse id="楕円形_342" data-name="楕円形 342" cx="0.538" cy="0.538" rx="0.538" ry="0.538" transform="translate(15371.574 4693.299)" fill="#008bba"/>
        <path id="パス_7346" data-name="パス 7346" d="M825.186,774.142s2.995-2.513,5.831-4.889a72.875,72.875,0,0,0,7.087-7.222s1.66,3.992,4.441,11.438a9.854,9.854,0,0,0,2.96-7.4,16.122,16.122,0,0,0-2.2-7.4,57.869,57.869,0,0,0-10.653-1.817,8.64,8.64,0,0,0-8.679,6.84,12.709,12.709,0,0,0-.269,5.113A39.558,39.558,0,0,0,825.186,774.142Z" transform="translate(14538.135 3892.985)" fill="#008bba"/>
      </g>
    </g>
    <g id="楕円形_319" data-name="楕円形 319" transform="translate(1276.384 3436.589)" fill="none" stroke="#008bba" stroke-width="1">
      <ellipse cx="29.808" cy="29.808" rx="29.808" ry="29.808" stroke="none"/>
      <ellipse cx="29.808" cy="29.808" rx="29.308" ry="29.308" fill="none"/>
    </g>
  </g>
</svg>
