<svg xmlns="http://www.w3.org/2000/svg" xmlns:xlink="http://www.w3.org/1999/xlink" width="59.616" height="59.616" viewBox="0 0 59.616 59.616">
  <defs>
    <clipPath id="clip-path">
      <ellipse id="楕円形_346" data-name="楕円形 346" cx="29.808" cy="29.808" rx="29.808" ry="29.808" transform="translate(1342.563 2883.428)" fill="#fff" stroke="#1b6ec3" stroke-width="1"/>
    </clipPath>
  </defs>
  <g id="グループ_26685" data-name="グループ 26685" transform="translate(-1276.384 -2883.428)">
    <g id="楕円形_315" data-name="楕円形 315" transform="translate(1276.384 2883.428)" fill="#fff" stroke="#1b6ec3" stroke-width="1">
      <ellipse cx="29.808" cy="29.808" rx="29.808" ry="29.808" stroke="none"/>
      <ellipse cx="29.808" cy="29.808" rx="29.308" ry="29.308" fill="none"/>
    </g>
    <g id="マスクグループ_209" data-name="マスクグループ 209" transform="translate(-66.18)" clip-path="url(#clip-path)">
      <g id="グループ_26680" data-name="グループ 26680" transform="translate(-13852 -1811.552)">
        <path id="パス_7291" data-name="パス 7291" d="M149.861,1028.872s3.12.185,5.248,4.441c3.9,7.8.137,16.75,1.211,19.512.942,2.422,2.557,5.517,2.557,5.517s-9.06,2.119-11.707.807c-4.8-2.377-1.615-9.016-1.615-9.016Z" transform="translate(15080.106 3675.865)" fill="#1b6ec3"/>
        <path id="パス_7292" data-name="パス 7292" d="M80.869,1028.872s-3.12.185-5.248,4.441c-3.9,7.8-.716,16.75-1.79,19.512-.942,2.422-1.978,5.517-1.978,5.517s9.06,2.119,11.707.807c4.8-2.377,1.615-9.016,1.615-9.016Z" transform="translate(15138.104 3675.865)" fill="#1b6ec3"/>
        <path id="パス_7317" data-name="パス 7317" d="M107.87,1033.614c0,7.26-5.4,13.146-12.066,13.146s-12.066-5.886-12.066-13.146,2.674-14.742,12.066-14.742C104.982,1018.872,107.87,1026.354,107.87,1033.614Z" transform="translate(15128.619 3683.847)" fill="#1b6ec3"/>
        <g id="グループ_26651" data-name="グループ 26651" transform="translate(15202 4711.216)">
          <path id="パス_7318" data-name="パス 7318" d="M75.394,1095.21c-4.362-3.877-11.91-4.871-13.95-6.639a2.469,2.469,0,0,1-.83-1.877v-.178a4.224,4.224,0,0,1,1.458-2.879,9.3,9.3,0,0,0,2.915-5.741,1.642,1.642,0,0,0,1.346-.224c1.749-1.256,3.14-4.889,3.23-6.549.085-1.579-.607-2.135-2.063-2.019-1.121.09-2.63,1.673-2.6,1.615a33.084,33.084,0,0,0-.4-7.625l-8,.059-8-.059a33.084,33.084,0,0,0-.4,7.625c.029.058-1.48-1.525-2.6-1.615-1.457-.117-2.149.439-2.063,2.019.09,1.66,1.48,5.293,3.23,6.549a1.642,1.642,0,0,0,1.346.224,9.3,9.3,0,0,0,2.915,5.741,4.224,4.224,0,0,1,1.458,2.879v.178a2.469,2.469,0,0,1-.83,1.877c-2.039,1.768-9.588,2.761-13.95,6.639-3.633,3.23-3.005,10.406-3.005,10.406H78.4S79.027,1098.44,75.394,1095.21Z" transform="translate(-34.127 -1062.665)" fill="#fff"/>
          <path id="パス_7319" data-name="パス 7319" d="M76.7,1104.349H32.9a.429.429,0,0,1-.428-.392,20.338,20.338,0,0,1,.142-4.087c.409-3.021,1.42-5.268,3.005-6.678,2.677-2.379,6.484-3.685,9.544-4.734a16.24,16.24,0,0,0,4.41-1.908,2.053,2.053,0,0,0,.682-1.559v-.172a3.824,3.824,0,0,0-1.316-2.56,9.707,9.707,0,0,1-3-5.577,1.978,1.978,0,0,1-1.224-.359c-1.833-1.315-3.308-5.019-3.408-6.874a2.053,2.053,0,0,1,2.526-2.469A4.034,4.034,0,0,1,45.875,1068a38.519,38.519,0,0,1,.5-6.67.429.429,0,0,1,.423-.359h0l8,.059,7.989-.059h0a.429.429,0,0,1,.423.359,38.519,38.519,0,0,1,.5,6.67,4.034,4.034,0,0,1,2.043-1.017,2.054,2.054,0,0,1,2.526,2.47c-.1,1.855-1.575,5.559-3.408,6.874a1.979,1.979,0,0,1-1.224.359,9.705,9.705,0,0,1-3,5.577,3.827,3.827,0,0,0-1.316,2.578v.16a2.05,2.05,0,0,0,.682,1.553,16.238,16.238,0,0,0,4.41,1.908c3.059,1.049,6.867,2.355,9.544,4.734h0c1.586,1.41,2.6,3.656,3.005,6.678a20.338,20.338,0,0,1,.142,4.087A.429.429,0,0,1,76.7,1104.349Zm-43.4-.858h42.99c.062-1.515.07-7.03-2.885-9.657h0c-2.548-2.265-6.265-3.539-9.252-4.564a16.072,16.072,0,0,1-4.694-2.071,2.909,2.909,0,0,1-.978-2.195v-.185a4.64,4.64,0,0,1,1.6-3.2,8.944,8.944,0,0,0,2.775-5.452.43.43,0,0,1,.556-.38,1.2,1.2,0,0,0,.967-.163c1.559-1.12,2.962-4.567,3.051-6.223a1.681,1.681,0,0,0-.307-1.3,1.646,1.646,0,0,0-1.294-.27c-.3.024-.99.241-2.255,1.423a.472.472,0,0,1-.637.109.431.431,0,0,1-.167-.415,30.674,30.674,0,0,0-.348-7.124l-7.625.056-7.631-.056a30.665,30.665,0,0,0-.348,7.124.431.431,0,0,1-.167.415.472.472,0,0,1-.637-.109c-1.265-1.183-1.956-1.4-2.255-1.423a1.65,1.65,0,0,0-1.294.27,1.681,1.681,0,0,0-.307,1.3c.089,1.657,1.492,5.1,3.051,6.223a1.2,1.2,0,0,0,.97.162.435.435,0,0,1,.368.059.429.429,0,0,1,.185.322,8.946,8.946,0,0,0,2.775,5.451,4.635,4.635,0,0,1,1.6,3.18v.2a2.913,2.913,0,0,1-.978,2.2,16.072,16.072,0,0,1-4.694,2.071c-2.987,1.024-6.7,2.3-9.252,4.564C33.233,1096.461,33.241,1101.975,33.3,1103.49Z" transform="translate(-32.426 -1060.968)" fill="#1b6ec3"/>
        </g>
        <g id="グループ_26652" data-name="グループ 26652" transform="translate(15217.178 4735.393)">
          <path id="パス_7320" data-name="パス 7320" d="M112.2,1182.871l4.321,4.264-2.209,5.155-4.566-6.937Z" transform="translate(-109.32 -1182.442)" fill="#fff"/>
          <path id="パス_7321" data-name="パス 7321" d="M112.619,1191.023a.429.429,0,0,1-.358-.193l-4.566-6.937a.429.429,0,0,1,.053-.538l2.455-2.482a.429.429,0,0,1,.607,0l4.321,4.264a.429.429,0,0,1,.093.474l-2.209,5.155a.428.428,0,0,1-.356.258Zm-4.016-7.312,3.936,5.98,1.78-4.153-3.807-3.758Z" transform="translate(-107.623 -1180.745)" fill="#1b6ec3"/>
        </g>
        <g id="グループ_26653" data-name="グループ 26653" transform="translate(15223.953 4735.393)">
          <path id="パス_7322" data-name="パス 7322" d="M147.638,1182.871l-4.321,4.264,2.209,5.155,4.566-6.937Z" transform="translate(-142.888 -1182.442)" fill="#fff"/>
          <path id="パス_7323" data-name="パス 7323" d="M143.83,1191.023l-.038,0a.429.429,0,0,1-.356-.258l-2.209-5.155a.429.429,0,0,1,.093-.474l4.321-4.264a.429.429,0,0,1,.607,0l2.455,2.482a.429.429,0,0,1,.053.538l-4.566,6.937A.429.429,0,0,1,143.83,1191.023Zm-1.7-5.485,1.78,4.153,3.936-5.98-1.909-1.93Z" transform="translate(-141.191 -1180.745)" fill="#1b6ec3"/>
        </g>
        <path id="パス_7324" data-name="パス 7324" d="M49.059,1193.594l6.546,16.181H33.533s-.907-8.6,5.053-11.842A65.251,65.251,0,0,1,49.059,1193.594Z" transform="translate(15168.729 3544.392)" fill="#1b6ec3"/>
        <path id="パス_7325" data-name="パス 7325" d="M150.363,1193.594l-6.546,16.181h22.072s.907-8.6-5.053-11.842A65.257,65.257,0,0,0,150.363,1193.594Z" transform="translate(15080.667 3544.392)" fill="#1b6ec3"/>
        <path id="パス_7333" data-name="パス 7333" d="M100.539,1054.358s14.219,7.2,17.179,11.505c0,0,1.57-8.9-.314-11.774S100.539,1054.358,100.539,1054.358Z" transform="translate(15115.209 3656.704)" fill="#1b6ec3"/>
        <path id="パス_7334" data-name="パス 7334" d="M95.413,1054.942s-1.951,9.666-2.086,11.887c0,0-2.187-1.491-2.355-6.28-.095-2.7,2.063-6.011,2.063-6.011Z" transform="translate(15122.848 3655.38)" fill="#1b6ec3"/>
      </g>
    </g>
  </g>
</svg>
