<svg xmlns="http://www.w3.org/2000/svg" xmlns:xlink="http://www.w3.org/1999/xlink" width="59.616" height="59.616" viewBox="0 0 59.616 59.616">
  <defs>
    <clipPath id="clip-path">
      <ellipse id="楕円形_347" data-name="楕円形 347" cx="29.808" cy="29.808" rx="29.808" ry="29.808" transform="translate(1342.563 2991.428)" fill="#fff" stroke="#1b6ec3" stroke-width="1"/>
    </clipPath>
  </defs>
  <g id="グループ_26684" data-name="グループ 26684" transform="translate(-1276.384 -2991.428)">
    <g id="マスクグループ_210" data-name="マスクグループ 210" transform="translate(-66.18)" clip-path="url(#clip-path)">
      <g id="グループ_26682" data-name="グループ 26682" transform="translate(-13898.828 -1701.785)">
        <path id="パス_7290" data-name="パス 7290" d="M389.565,1044.375s4.575-1.009,7.334,2.691c2.338,3.136,2.262,10.83-.606,18.3-2.557,6.661,3.162,6.8,3.162,6.8s-7.267,3.162-10.832-1.817c-3.858-5.386-4.306-13.591-4.306-13.591Z" transform="translate(14888.711 3663.592)" fill="#1b6ec3"/>
        <path id="パス_7326" data-name="パス 7326" d="M340.888,1033.614c0,7.26-5.5,13.146-12.286,13.146s-12.286-5.886-12.286-13.146,2.722-14.742,12.286-14.742C337.947,1018.872,340.888,1026.354,340.888,1033.614Z" transform="translate(14942.985 3683.847)" fill="#1b6ec3"/>
        <g id="グループ_26654" data-name="グループ 26654" transform="translate(15248.828 4711.216)">
          <path id="パス_7327" data-name="パス 7327" d="M307.393,1095.21c-4.362-3.877-11.91-4.871-13.95-6.639a2.469,2.469,0,0,1-.83-1.877v-.178a4.223,4.223,0,0,1,1.458-2.879,9.3,9.3,0,0,0,2.916-5.741,1.642,1.642,0,0,0,1.346-.224c1.749-1.256,3.14-4.889,3.23-6.549.085-1.579-.607-2.135-2.063-2.019-1.121.09-2.63,1.673-2.6,1.615a33.085,33.085,0,0,0-.4-7.625l-8,.059-8-.059a33.084,33.084,0,0,0-.4,7.625c.029.058-1.48-1.525-2.6-1.615-1.456-.117-2.149.439-2.063,2.019.09,1.66,1.48,5.293,3.23,6.549a1.642,1.642,0,0,0,1.346.224,9.3,9.3,0,0,0,2.915,5.741,4.223,4.223,0,0,1,1.458,2.879v.178a2.468,2.468,0,0,1-.83,1.877c-2.039,1.768-9.588,2.761-13.95,6.639-3.633,3.23-3.005,10.406-3.005,10.406h43.8S311.026,1098.44,307.393,1095.21Z" transform="translate(-266.126 -1062.665)" fill="#fff"/>
          <path id="パス_7328" data-name="パス 7328" d="M308.7,1104.349H264.9a.429.429,0,0,1-.428-.392,20.33,20.33,0,0,1,.143-4.087c.408-3.021,1.419-5.268,3.005-6.678,2.677-2.379,6.484-3.685,9.544-4.734a16.236,16.236,0,0,0,4.41-1.908,2.051,2.051,0,0,0,.682-1.559v-.172a3.823,3.823,0,0,0-1.315-2.56,9.705,9.705,0,0,1-3-5.577,1.976,1.976,0,0,1-1.224-.359c-1.832-1.315-3.307-5.019-3.408-6.874a2.054,2.054,0,0,1,2.526-2.469,4.036,4.036,0,0,1,2.043,1.017,38.51,38.51,0,0,1,.5-6.67.429.429,0,0,1,.423-.359h0l8,.059,7.989-.059h0a.429.429,0,0,1,.423.359,38.554,38.554,0,0,1,.5,6.67,4.035,4.035,0,0,1,2.043-1.017,2.054,2.054,0,0,1,2.526,2.469c-.1,1.855-1.575,5.559-3.408,6.874a1.98,1.98,0,0,1-1.224.359,9.7,9.7,0,0,1-3,5.577,3.826,3.826,0,0,0-1.316,2.578v.16a2.049,2.049,0,0,0,.682,1.553,16.246,16.246,0,0,0,4.41,1.908c3.059,1.049,6.867,2.355,9.544,4.734,1.586,1.41,2.6,3.656,3.005,6.678a20.364,20.364,0,0,1,.142,4.087A.429.429,0,0,1,308.7,1104.349Zm-43.4-.858h42.99c.062-1.515.07-7.03-2.885-9.657-2.548-2.265-6.265-3.539-9.252-4.564a16.072,16.072,0,0,1-4.694-2.071,2.908,2.908,0,0,1-.978-2.195v-.185a4.64,4.64,0,0,1,1.6-3.2,8.944,8.944,0,0,0,2.774-5.452.43.43,0,0,1,.556-.38,1.2,1.2,0,0,0,.967-.164c1.559-1.119,2.962-4.566,3.051-6.223a1.681,1.681,0,0,0-.307-1.3,1.643,1.643,0,0,0-1.294-.27c-.3.024-.99.241-2.255,1.423a.473.473,0,0,1-.637.11.431.431,0,0,1-.168-.415,30.668,30.668,0,0,0-.348-7.124l-7.625.056-7.631-.056a30.668,30.668,0,0,0-.348,7.124.431.431,0,0,1-.167.415.472.472,0,0,1-.637-.11c-1.266-1.182-1.956-1.4-2.255-1.423a1.647,1.647,0,0,0-1.294.27,1.681,1.681,0,0,0-.307,1.3c.089,1.657,1.492,5.1,3.051,6.223a1.211,1.211,0,0,0,.967.164.429.429,0,0,1,.556.38,8.946,8.946,0,0,0,2.775,5.451,4.634,4.634,0,0,1,1.6,3.18v.2a2.912,2.912,0,0,1-.978,2.2,16.075,16.075,0,0,1-4.694,2.071c-2.987,1.024-6.7,2.3-9.252,4.564C265.233,1096.461,265.241,1101.975,265.3,1103.49Z" transform="translate(-264.427 -1060.968)" fill="#1b6ec3"/>
        </g>
        <g id="グループ_26655" data-name="グループ 26655" transform="translate(15264.007 4735.393)">
          <path id="パス_7329" data-name="パス 7329" d="M344.2,1182.871l4.321,4.264-2.209,5.155-4.566-6.937Z" transform="translate(-341.32 -1182.442)" fill="#fff"/>
          <path id="パス_7330" data-name="パス 7330" d="M344.618,1191.023a.429.429,0,0,1-.358-.193l-4.566-6.937a.429.429,0,0,1,.053-.538l2.455-2.482a.429.429,0,0,1,.607,0l4.321,4.264a.429.429,0,0,1,.093.474l-2.209,5.155a.428.428,0,0,1-.356.258Zm-4.017-7.312,3.936,5.98,1.78-4.153-3.807-3.758Z" transform="translate(-339.623 -1180.745)" fill="#1b6ec3"/>
        </g>
        <g id="グループ_26656" data-name="グループ 26656" transform="translate(15270.782 4735.393)">
          <path id="パス_7331" data-name="パス 7331" d="M379.637,1182.871l-4.321,4.264,2.209,5.155,4.566-6.937Z" transform="translate(-374.887 -1182.442)" fill="#fff"/>
          <path id="パス_7332" data-name="パス 7332" d="M375.829,1191.023l-.038,0a.428.428,0,0,1-.356-.258l-2.21-5.155a.429.429,0,0,1,.093-.474l4.321-4.264a.429.429,0,0,1,.606,0l2.455,2.482a.429.429,0,0,1,.053.538l-4.566,6.937A.429.429,0,0,1,375.829,1191.023Zm-1.7-5.485,1.78,4.153,3.936-5.98-1.909-1.93Z" transform="translate(-373.19 -1180.745)" fill="#1b6ec3"/>
        </g>
        <ellipse id="楕円形_339" data-name="楕円形 339" cx="0.538" cy="0.538" rx="0.538" ry="0.538" transform="translate(15270.65 4746.408)" fill="#1b6ec3"/>
        <ellipse id="楕円形_340" data-name="楕円形 340" cx="0.538" cy="0.538" rx="0.538" ry="0.538" transform="translate(15270.65 4750.019)" fill="#1b6ec3"/>
        <path id="パス_7335" data-name="パス 7335" d="M325.187,1055.141s2.995-2.513,5.831-4.889a72.876,72.876,0,0,0,7.087-7.222s1.66,3.992,4.441,11.438a9.855,9.855,0,0,0,2.96-7.4,16.122,16.122,0,0,0-2.2-7.4,57.872,57.872,0,0,0-10.653-1.817,8.64,8.64,0,0,0-8.679,6.84,12.709,12.709,0,0,0-.269,5.113A39.557,39.557,0,0,0,325.187,1055.141Z" transform="translate(14937.21 3668.704)" fill="#1b6ec3"/>
      </g>
    </g>
    <g id="楕円形_316" data-name="楕円形 316" transform="translate(1276.384 2991.428)" fill="none" stroke="#1b6ec3" stroke-width="1">
      <ellipse cx="29.808" cy="29.808" rx="29.808" ry="29.808" stroke="none"/>
      <ellipse cx="29.808" cy="29.808" rx="29.308" ry="29.308" fill="none"/>
    </g>
  </g>
</svg>
