<svg xmlns="http://www.w3.org/2000/svg" xmlns:xlink="http://www.w3.org/1999/xlink" width="59.616" height="59.663" viewBox="0 0 59.616 59.663">
  <defs>
    <clipPath id="clip-path">
      <ellipse id="楕円形_349" data-name="楕円形 349" cx="29.808" cy="29.808" rx="29.808" ry="29.808" transform="translate(1332.948 3327.014)" fill="#fff" stroke="#008bba" stroke-width="1"/>
    </clipPath>
  </defs>
  <g id="グループ_26694" data-name="グループ 26694" transform="translate(-1276.384 -3325.396)">
    <g id="楕円形_318" data-name="楕円形 318" transform="translate(1276.384 3325.396)" fill="#fff" stroke="#008bba" stroke-width="1">
      <ellipse cx="29.808" cy="29.808" rx="29.808" ry="29.808" stroke="none"/>
      <ellipse cx="29.808" cy="29.808" rx="29.308" ry="29.308" fill="none"/>
    </g>
    <g id="マスクグループ_215" data-name="マスクグループ 215" transform="translate(-56.564 -1.571)" clip-path="url(#clip-path)">
      <g id="グループ_26689" data-name="グループ 26689" transform="translate(-13962 -1311.449)">
        <path id="パス_7349" data-name="パス 7349" d="M605.2,753.614c0,7.261-5.4,13.147-12.066,13.147s-12.066-5.886-12.066-13.147,2.674-14.742,12.066-14.742C602.314,738.872,605.2,746.354,605.2,753.614Z" transform="translate(14731.672 3907.33)" fill="#008bba"/>
        <g id="グループ_26661" data-name="グループ 26661" transform="translate(15302.385 4654.699)">
          <path id="パス_7350" data-name="パス 7350" d="M572.726,815.21c-4.362-3.877-11.91-4.871-13.95-6.639a2.467,2.467,0,0,1-.83-1.877v-.178a4.223,4.223,0,0,1,1.458-2.879,9.3,9.3,0,0,0,2.916-5.741,1.642,1.642,0,0,0,1.346-.224c1.749-1.256,3.14-4.889,3.23-6.549.085-1.579-.607-2.135-2.063-2.018-1.121.09-2.63,1.673-2.6,1.615a33.082,33.082,0,0,0-.4-7.625l-8,.059-8-.059a33.086,33.086,0,0,0-.4,7.625c.029.058-1.48-1.525-2.6-1.615-1.456-.116-2.149.439-2.063,2.018.09,1.66,1.48,5.293,3.23,6.549a1.642,1.642,0,0,0,1.346.224,9.3,9.3,0,0,0,2.916,5.741,4.223,4.223,0,0,1,1.458,2.879v.178a2.468,2.468,0,0,1-.83,1.877c-2.039,1.768-9.588,2.761-13.95,6.639-3.633,3.23-3.005,10.406-3.005,10.406h43.8S576.359,818.44,572.726,815.21Z" transform="translate(-531.459 -782.665)" fill="#fff"/>
          <path id="パス_7351" data-name="パス 7351" d="M574.031,824.35h-43.8a.429.429,0,0,1-.428-.392,20.331,20.331,0,0,1,.143-4.087c.408-3.021,1.42-5.268,3.005-6.677,2.677-2.379,6.484-3.685,9.544-4.734a16.238,16.238,0,0,0,4.41-1.908,2.053,2.053,0,0,0,.682-1.56v-.171a3.822,3.822,0,0,0-1.316-2.56,9.706,9.706,0,0,1-3-5.577,1.982,1.982,0,0,1-1.224-.359c-1.832-1.315-3.307-5.019-3.408-6.874a2.054,2.054,0,0,1,2.526-2.469A4.035,4.035,0,0,1,543.207,788a38.5,38.5,0,0,1,.5-6.669.433.433,0,0,1,.427-.359l8,.059,7.989-.059a.44.44,0,0,1,.427.359,38.556,38.556,0,0,1,.5,6.669,4.035,4.035,0,0,1,2.043-1.017,2.054,2.054,0,0,1,2.526,2.469c-.1,1.855-1.576,5.559-3.408,6.874a1.985,1.985,0,0,1-1.224.359,9.7,9.7,0,0,1-3,5.577,3.827,3.827,0,0,0-1.316,2.578V805a2.05,2.05,0,0,0,.682,1.553,16.239,16.239,0,0,0,4.41,1.908c3.06,1.049,6.867,2.355,9.544,4.734h0c1.586,1.409,2.6,3.656,3.005,6.677a20.366,20.366,0,0,1,.142,4.087A.429.429,0,0,1,574.031,824.35Zm-43.4-.858h42.99c.062-1.515.07-7.03-2.885-9.657-2.548-2.265-6.265-3.54-9.252-4.564a16.071,16.071,0,0,1-4.694-2.071,2.91,2.91,0,0,1-.978-2.195v-.185a4.64,4.64,0,0,1,1.6-3.2,8.945,8.945,0,0,0,2.774-5.452.429.429,0,0,1,.556-.38,1.2,1.2,0,0,0,.967-.164c1.559-1.119,2.962-4.566,3.051-6.223a1.68,1.68,0,0,0-.307-1.3,1.642,1.642,0,0,0-1.294-.27c-.3.024-.991.241-2.256,1.424a.471.471,0,0,1-.637.108.431.431,0,0,1-.167-.415,30.666,30.666,0,0,0-.348-7.124l-7.625.056-7.631-.056a30.665,30.665,0,0,0-.348,7.124.431.431,0,0,1-.167.415.471.471,0,0,1-.637-.108c-1.266-1.183-1.957-1.4-2.256-1.424a1.641,1.641,0,0,0-1.294.27,1.681,1.681,0,0,0-.307,1.3c.089,1.657,1.492,5.1,3.051,6.223a1.213,1.213,0,0,0,.967.164.429.429,0,0,1,.557.38,8.946,8.946,0,0,0,2.774,5.451,4.633,4.633,0,0,1,1.6,3.18v.2a2.912,2.912,0,0,1-.978,2.2,16.071,16.071,0,0,1-4.694,2.071c-2.987,1.024-6.7,2.3-9.252,4.564C530.565,816.462,530.573,821.976,530.635,823.491Z" transform="translate(-529.758 -780.969)" fill="#008bba"/>
        </g>
        <g id="グループ_26662" data-name="グループ 26662" transform="translate(15317.563 4678.875)">
          <path id="パス_7352" data-name="パス 7352" d="M609.537,902.872l4.321,4.264-2.209,5.155-4.566-6.937Z" transform="translate(-606.653 -902.443)" fill="#fff"/>
          <path id="パス_7353" data-name="パス 7353" d="M609.951,911.024a.428.428,0,0,1-.358-.193l-4.566-6.937a.429.429,0,0,1,.053-.538l2.455-2.482a.429.429,0,0,1,.607,0l4.321,4.264a.429.429,0,0,1,.093.474l-2.21,5.155a.428.428,0,0,1-.356.258Zm-4.016-7.312,3.936,5.98,1.78-4.153-3.807-3.758Z" transform="translate(-604.956 -900.746)" fill="#008bba"/>
        </g>
        <g id="グループ_26663" data-name="グループ 26663" transform="translate(15324.339 4678.875)">
          <path id="パス_7354" data-name="パス 7354" d="M644.97,902.872l-4.321,4.264,2.209,5.155,4.566-6.937Z" transform="translate(-640.22 -902.443)" fill="#fff"/>
          <path id="パス_7355" data-name="パス 7355" d="M641.162,911.024l-.038,0a.428.428,0,0,1-.356-.258l-2.21-5.155a.429.429,0,0,1,.093-.474l4.321-4.264a.429.429,0,0,1,.606,0l2.455,2.482a.429.429,0,0,1,.053.538l-4.566,6.937A.428.428,0,0,1,641.162,911.024Zm-1.7-5.484,1.78,4.153,3.936-5.98-1.909-1.93Z" transform="translate(-638.523 -900.746)" fill="#008bba"/>
        </g>
        <path id="パス_7356" data-name="パス 7356" d="M546.392,913.594l6.546,16.182H530.866s-.907-8.6,5.053-11.842A65.255,65.255,0,0,1,546.392,913.594Z" transform="translate(14771.782 3767.875)" fill="#008bba"/>
        <path id="パス_7357" data-name="パス 7357" d="M647.695,913.594l-6.546,16.182h22.072s.907-8.6-5.053-11.842A65.255,65.255,0,0,0,647.695,913.594Z" transform="translate(14683.72 3767.875)" fill="#008bba"/>
        <path id="パス_7369" data-name="パス 7369" d="M598.983,786.909s7.311.224,8.926-.852,4.485-6.549,4.485-6.549a21.031,21.031,0,0,0,1.076,3.947,14.039,14.039,0,0,0,2.108,3.5l1.211-2.422s-.987-5.831-1.7-5.921-15.879-.628-15.879-.628Z" transform="translate(14717.375 3876.113)" fill="#008bba"/>
      </g>
    </g>
  </g>
</svg>
