<svg xmlns="http://www.w3.org/2000/svg" xmlns:xlink="http://www.w3.org/1999/xlink" width="59.616" height="59.616" viewBox="0 0 59.616 59.616">
  <defs>
    <clipPath id="clip-path">
      <ellipse id="楕円形_351" data-name="楕円形 351" cx="29.808" cy="29.808" rx="29.808" ry="29.808" transform="translate(1332.948 3545.651)" fill="#fff" stroke="#008bba" stroke-width="1"/>
    </clipPath>
  </defs>
  <g id="グループ_26692" data-name="グループ 26692" transform="translate(-1276.384 -3551.969)">
    <g id="マスクグループ_213" data-name="マスクグループ 213" transform="translate(-56.564 6.318)" clip-path="url(#clip-path)">
      <g id="グループ_26690" data-name="グループ 26690" transform="translate(-13962 -1148.329)">
        <path id="パス_7347" data-name="パス 7347" d="M647.193,1028.872s3.12.185,5.248,4.441c3.9,7.8.995,16.556,1.211,19.512a96.812,96.812,0,0,0,2.557,13.726s-9.06,2.119-11.707.807c-4.8-2.377-1.615-17.224-1.615-17.224Z" transform="translate(14683.159 3675.865)" fill="#008bba"/>
        <path id="パス_7348" data-name="パス 7348" d="M578.2,1028.872s-3.121.185-5.248,4.441c-3.9,7.8-1.605,16.554-1.79,19.512a108.068,108.068,0,0,1-1.978,13.726s9.06,2.119,11.707.807c4.8-2.377,1.615-17.224,1.615-17.224Z" transform="translate(14741.158 3675.865)" fill="#008bba"/>
        <path id="パス_7358" data-name="パス 7358" d="M605.2,1033.614c0,7.26-5.4,13.146-12.066,13.146s-12.066-5.886-12.066-13.146,2.674-14.742,12.066-14.742C602.314,1018.872,605.2,1026.354,605.2,1033.614Z" transform="translate(14731.672 3683.847)" fill="#008bba"/>
        <g id="グループ_26664" data-name="グループ 26664" transform="translate(15302.385 4711.216)">
          <path id="パス_7359" data-name="パス 7359" d="M572.726,1095.21c-4.362-3.877-11.91-4.871-13.95-6.639a2.468,2.468,0,0,1-.83-1.877v-.178a4.223,4.223,0,0,1,1.458-2.879,9.3,9.3,0,0,0,2.916-5.741,1.642,1.642,0,0,0,1.346-.224c1.749-1.256,3.14-4.889,3.23-6.549.085-1.579-.607-2.135-2.063-2.019-1.121.09-2.63,1.673-2.6,1.615a33.081,33.081,0,0,0-.4-7.625l-8,.059-8-.059a33.085,33.085,0,0,0-.4,7.625c.029.058-1.48-1.525-2.6-1.615-1.456-.117-2.149.439-2.063,2.019.09,1.66,1.48,5.293,3.23,6.549a1.642,1.642,0,0,0,1.346.224,9.3,9.3,0,0,0,2.916,5.741,4.224,4.224,0,0,1,1.458,2.879v.178a2.468,2.468,0,0,1-.83,1.878c-2.039,1.768-9.588,2.761-13.95,6.639-3.633,3.23-3.005,10.406-3.005,10.406h43.8S576.359,1098.44,572.726,1095.21Z" transform="translate(-531.459 -1062.665)" fill="#fff"/>
          <path id="パス_7360" data-name="パス 7360" d="M574.031,1104.349h-43.8a.429.429,0,0,1-.428-.392,20.33,20.33,0,0,1,.143-4.087c.408-3.021,1.42-5.268,3.005-6.678,2.677-2.379,6.484-3.685,9.544-4.734a16.238,16.238,0,0,0,4.41-1.908,2.052,2.052,0,0,0,.682-1.559v-.171a3.824,3.824,0,0,0-1.316-2.56,9.706,9.706,0,0,1-3-5.577,1.975,1.975,0,0,1-1.224-.359c-1.832-1.315-3.307-5.019-3.408-6.874a2.054,2.054,0,0,1,2.526-2.469,4.034,4.034,0,0,1,2.043,1.017,38.507,38.507,0,0,1,.5-6.67.429.429,0,0,1,.423-.359h0l8,.059,7.989-.059h0a.429.429,0,0,1,.423.359,38.559,38.559,0,0,1,.5,6.67,4.034,4.034,0,0,1,2.043-1.017,2.054,2.054,0,0,1,2.526,2.469c-.1,1.855-1.576,5.559-3.408,6.874a1.979,1.979,0,0,1-1.224.359,9.7,9.7,0,0,1-3,5.577,3.826,3.826,0,0,0-1.316,2.578v.16a2.05,2.05,0,0,0,.682,1.553,16.238,16.238,0,0,0,4.41,1.908c3.059,1.049,6.867,2.355,9.544,4.734h0c1.586,1.41,2.6,3.656,3.005,6.678a20.365,20.365,0,0,1,.142,4.087A.429.429,0,0,1,574.031,1104.349Zm-43.4-.858h42.99c.062-1.515.07-7.03-2.885-9.657-2.548-2.265-6.265-3.539-9.252-4.564a16.072,16.072,0,0,1-4.694-2.071,2.91,2.91,0,0,1-.978-2.195v-.185a4.641,4.641,0,0,1,1.6-3.2,8.945,8.945,0,0,0,2.774-5.452.43.43,0,0,1,.556-.38,1.2,1.2,0,0,0,.967-.164c1.559-1.119,2.962-4.566,3.051-6.223a1.681,1.681,0,0,0-.307-1.3,1.643,1.643,0,0,0-1.294-.27c-.3.024-.99.241-2.256,1.424a.472.472,0,0,1-.637.109.431.431,0,0,1-.167-.415,30.666,30.666,0,0,0-.348-7.124l-7.625.056-7.631-.056a30.665,30.665,0,0,0-.348,7.124.431.431,0,0,1-.167.415.472.472,0,0,1-.637-.109c-1.266-1.183-1.956-1.4-2.256-1.424a1.647,1.647,0,0,0-1.294.27,1.681,1.681,0,0,0-.307,1.3c.089,1.657,1.492,5.1,3.051,6.223a1.211,1.211,0,0,0,.967.164.429.429,0,0,1,.557.38,8.946,8.946,0,0,0,2.774,5.451,4.634,4.634,0,0,1,1.6,3.18v.2a2.912,2.912,0,0,1-.978,2.2,16.073,16.073,0,0,1-4.694,2.071c-2.987,1.024-6.7,2.3-9.252,4.564C530.565,1096.461,530.573,1101.975,530.635,1103.49Z" transform="translate(-529.758 -1060.968)" fill="#008bba"/>
        </g>
        <g id="グループ_26665" data-name="グループ 26665" transform="translate(15317.563 4735.393)">
          <path id="パス_7361" data-name="パス 7361" d="M609.537,1182.871l4.321,4.264-2.209,5.155-4.566-6.937Z" transform="translate(-606.653 -1182.442)" fill="#fff"/>
          <path id="パス_7362" data-name="パス 7362" d="M609.951,1191.023a.429.429,0,0,1-.358-.193l-4.566-6.937a.429.429,0,0,1,.053-.538l2.455-2.482a.429.429,0,0,1,.607,0l4.321,4.264a.429.429,0,0,1,.093.474l-2.21,5.155a.428.428,0,0,1-.356.258Zm-4.016-7.312,3.936,5.98,1.78-4.153-3.807-3.758Z" transform="translate(-604.956 -1180.745)" fill="#008bba"/>
        </g>
        <g id="グループ_26666" data-name="グループ 26666" transform="translate(15324.339 4735.393)">
          <path id="パス_7363" data-name="パス 7363" d="M644.97,1182.871l-4.321,4.264,2.209,5.155,4.566-6.937Z" transform="translate(-640.22 -1182.442)" fill="#fff"/>
          <path id="パス_7364" data-name="パス 7364" d="M641.162,1191.023l-.038,0a.428.428,0,0,1-.356-.258l-2.21-5.155a.429.429,0,0,1,.093-.474l4.321-4.264a.429.429,0,0,1,.606,0l2.455,2.482a.429.429,0,0,1,.053.538l-4.566,6.937A.429.429,0,0,1,641.162,1191.023Zm-1.7-5.485,1.78,4.153,3.936-5.98-1.909-1.93Z" transform="translate(-638.523 -1180.745)" fill="#008bba"/>
        </g>
        <path id="パス_7365" data-name="パス 7365" d="M546.392,1193.594l.2,16.181H530.866s-.907-8.6,5.053-11.842A65.248,65.248,0,0,1,546.392,1193.594Z" transform="translate(14771.782 3544.392)" fill="#008bba"/>
        <path id="パス_7366" data-name="パス 7366" d="M672.3,1193.594l-.322,16.181h15.848s.907-8.6-5.053-11.842A65.248,65.248,0,0,0,672.3,1193.594Z" transform="translate(14659.109 3544.392)" fill="#008bba"/>
        <path id="パス_7367" data-name="パス 7367" d="M597.872,1054.358s14.219,7.2,17.179,11.505c0,0,1.57-8.9-.314-11.774S597.872,1054.358,597.872,1054.358Z" transform="translate(14718.262 3656.704)" fill="#008bba"/>
        <path id="パス_7368" data-name="パス 7368" d="M592.745,1054.942s-1.951,9.666-2.086,11.887c0,0-2.187-1.491-2.355-6.28-.095-2.7,2.063-6.011,2.063-6.011Z" transform="translate(14725.9 3655.38)" fill="#008bba"/>
        <ellipse id="楕円形_343" data-name="楕円形 343" cx="0.538" cy="0.538" rx="0.538" ry="0.538" transform="translate(15324.027 4746.408)" fill="#008bba"/>
        <ellipse id="楕円形_344" data-name="楕円形 344" cx="0.538" cy="0.538" rx="0.538" ry="0.538" transform="translate(15324.027 4750.019)" fill="#008bba"/>
      </g>
    </g>
    <g id="楕円形_320" data-name="楕円形 320" transform="translate(1276.384 3551.969)" fill="none" stroke="#008bba" stroke-width="1">
      <ellipse cx="29.808" cy="29.808" rx="29.808" ry="29.808" stroke="none"/>
      <ellipse cx="29.808" cy="29.808" rx="29.308" ry="29.308" fill="none"/>
    </g>
  </g>
</svg>
