<svg xmlns="http://www.w3.org/2000/svg" xmlns:xlink="http://www.w3.org/1999/xlink" width="59.616" height="60.293" viewBox="0 0 59.616 60.293">
  <defs>
    <clipPath id="clip-path">
      <ellipse id="楕円形_352" data-name="楕円形 352" cx="29.808" cy="29.808" rx="29.808" ry="29.808" transform="translate(1332.948 3631.111)" fill="#fff" stroke="#008bba" stroke-width="1"/>
    </clipPath>
  </defs>
  <g id="グループ_26691" data-name="グループ 26691" transform="translate(-1276.384 -3665.111)">
    <g id="マスクグループ_212" data-name="マスクグループ 212" transform="translate(-56.564 34)" clip-path="url(#clip-path)">
      <g id="グループ_26687" data-name="グループ 26687" transform="translate(-14009.098 -1062.87)">
        <path id="パス_7289" data-name="パス 7289" d="M809.814,1038.51s-8.7,12.828-.269,22.069l4.216,1.974,11.124.179L830,1060.4s5.652-5.831,1.435-18.3C828.824,1034.382,809.814,1038.51,809.814,1038.51Z" transform="translate(14552.251 3669.053)" fill="#008bba"/>
        <path id="パス_7336" data-name="パス 7336" d="M837.957,1033.614c0,7.26-5.591,13.146-12.487,13.146s-12.488-5.886-12.488-13.146,2.767-14.742,12.488-14.742C834.967,1018.872,837.957,1026.354,837.957,1033.614Z" transform="translate(14546.57 3683.847)" fill="#008bba"/>
        <g id="グループ_26657" data-name="グループ 26657" transform="translate(15349.482 4711.216)">
          <path id="パス_7337" data-name="パス 7337" d="M806.059,1095.21c-4.362-3.877-11.911-4.871-13.95-6.639a2.467,2.467,0,0,1-.83-1.877v-.178a4.223,4.223,0,0,1,1.458-2.879,9.3,9.3,0,0,0,2.915-5.741,1.642,1.642,0,0,0,1.346-.224c1.749-1.256,3.14-4.889,3.23-6.549.085-1.579-.607-2.135-2.063-2.019-1.122.09-2.63,1.673-2.6,1.615a33.084,33.084,0,0,0-.4-7.625l-8,.059-8-.059a33.085,33.085,0,0,0-.4,7.625c.029.058-1.48-1.525-2.6-1.615-1.457-.117-2.149.439-2.063,2.019.09,1.66,1.48,5.293,3.23,6.549a1.642,1.642,0,0,0,1.345.224,9.3,9.3,0,0,0,2.916,5.741,4.224,4.224,0,0,1,1.458,2.879v.178a2.469,2.469,0,0,1-.83,1.877c-2.039,1.768-9.588,2.761-13.95,6.639-3.633,3.23-3.005,10.406-3.005,10.406h43.8S809.692,1098.44,806.059,1095.21Z" transform="translate(-764.792 -1062.665)" fill="#fff"/>
          <path id="パス_7338" data-name="パス 7338" d="M807.364,1104.349h-43.8a.429.429,0,0,1-.427-.392,20.33,20.33,0,0,1,.143-4.087c.408-3.021,1.419-5.268,3.005-6.678,2.677-2.379,6.484-3.685,9.544-4.734a16.236,16.236,0,0,0,4.41-1.908,2.052,2.052,0,0,0,.682-1.559v-.172a3.822,3.822,0,0,0-1.316-2.56,9.706,9.706,0,0,1-3-5.577,1.974,1.974,0,0,1-1.224-.359c-1.832-1.315-3.307-5.019-3.408-6.874a2.054,2.054,0,0,1,2.526-2.469A4.034,4.034,0,0,1,776.54,1068a38.507,38.507,0,0,1,.5-6.67.429.429,0,0,1,.423-.359h0l8,.059,7.989-.059h0a.429.429,0,0,1,.423.359,38.555,38.555,0,0,1,.5,6.67,4.034,4.034,0,0,1,2.043-1.017,2.053,2.053,0,0,1,2.526,2.469c-.1,1.855-1.575,5.559-3.408,6.874a1.981,1.981,0,0,1-1.224.359,9.7,9.7,0,0,1-3,5.577,3.826,3.826,0,0,0-1.316,2.578v.16a2.05,2.05,0,0,0,.682,1.553,16.238,16.238,0,0,0,4.41,1.908c3.059,1.049,6.867,2.355,9.544,4.734h0c1.586,1.41,2.6,3.656,3.006,6.678a20.365,20.365,0,0,1,.142,4.087A.429.429,0,0,1,807.364,1104.349Zm-43.4-.858h42.99c.062-1.515.07-7.03-2.885-9.657-2.548-2.265-6.265-3.539-9.252-4.564a16.072,16.072,0,0,1-4.694-2.071,2.91,2.91,0,0,1-.978-2.195v-.185a4.64,4.64,0,0,1,1.6-3.2,8.943,8.943,0,0,0,2.774-5.452.43.43,0,0,1,.556-.38,1.2,1.2,0,0,0,.967-.163c1.559-1.12,2.962-4.567,3.051-6.223a1.681,1.681,0,0,0-.307-1.3,1.644,1.644,0,0,0-1.294-.27c-.3.024-.99.241-2.256,1.424a.472.472,0,0,1-.637.109.431.431,0,0,1-.167-.415,30.684,30.684,0,0,0-.348-7.123l-7.625.056-7.631-.056a30.665,30.665,0,0,0-.348,7.124.431.431,0,0,1-.167.415.472.472,0,0,1-.637-.109c-1.266-1.183-1.956-1.4-2.256-1.424a1.647,1.647,0,0,0-1.294.27,1.681,1.681,0,0,0-.307,1.3c.089,1.657,1.492,5.1,3.051,6.223a1.211,1.211,0,0,0,.967.164.429.429,0,0,1,.557.38,8.946,8.946,0,0,0,2.774,5.451,4.634,4.634,0,0,1,1.6,3.18v.2a2.912,2.912,0,0,1-.978,2.2,16.073,16.073,0,0,1-4.694,2.071c-2.987,1.024-6.7,2.3-9.252,4.564C763.9,1096.461,763.906,1101.975,763.968,1103.49Z" transform="translate(-763.091 -1060.968)" fill="#008bba"/>
        </g>
        <g id="グループ_26667" data-name="グループ 26667" transform="translate(15364.661 4735.393)">
          <path id="パス_7370" data-name="パス 7370" d="M842.87,1182.871l4.321,4.264-2.209,5.155-4.566-6.937Z" transform="translate(-839.986 -1182.442)" fill="#fff"/>
          <path id="パス_7371" data-name="パス 7371" d="M843.284,1191.023a.429.429,0,0,1-.358-.193l-4.566-6.937a.429.429,0,0,1,.053-.538l2.455-2.482a.429.429,0,0,1,.607,0l4.321,4.264a.429.429,0,0,1,.093.474l-2.21,5.155a.428.428,0,0,1-.356.258Zm-4.016-7.312,3.936,5.98,1.78-4.153-3.807-3.758Z" transform="translate(-838.289 -1180.745)" fill="#008bba"/>
        </g>
        <g id="グループ_26668" data-name="グループ 26668" transform="translate(15371.437 4735.393)">
          <path id="パス_7372" data-name="パス 7372" d="M878.3,1182.871l-4.321,4.264,2.209,5.155,4.566-6.937Z" transform="translate(-873.553 -1182.442)" fill="#fff"/>
          <path id="パス_7373" data-name="パス 7373" d="M874.495,1191.023l-.038,0a.428.428,0,0,1-.356-.258l-2.209-5.155a.429.429,0,0,1,.093-.474l4.321-4.264a.429.429,0,0,1,.606,0l2.455,2.482a.429.429,0,0,1,.053.538l-4.566,6.937A.429.429,0,0,1,874.495,1191.023Zm-1.7-5.485,1.78,4.153,3.936-5.98-1.909-1.93Z" transform="translate(-871.856 -1180.745)" fill="#008bba"/>
        </g>
        <g id="グループ_26669" data-name="グループ 26669" transform="translate(15370.615 4742.04)">
          <line id="線_287" data-name="線 287" y2="11.573" transform="translate(0.286 0.286)" fill="#fff"/>
          <path id="パス_7374" data-name="パス 7374" d="M868.073,1225.822a.286.286,0,0,1-.286-.286v-11.573a.286.286,0,0,1,.572,0v11.573A.286.286,0,0,1,868.073,1225.822Z" transform="translate(-867.787 -1213.677)" fill="#008bba"/>
        </g>
        <g id="グループ_26670" data-name="グループ 26670" transform="translate(15372.544 4742.04)">
          <line id="線_288" data-name="線 288" y2="11.573" transform="translate(0.286 0.286)" fill="#fff"/>
          <path id="パス_7375" data-name="パス 7375" d="M877.629,1225.822a.286.286,0,0,1-.286-.286v-11.573a.286.286,0,0,1,.572,0v11.573A.286.286,0,0,1,877.629,1225.822Z" transform="translate(-877.343 -1213.677)" fill="#008bba"/>
        </g>
        <path id="パス_7376" data-name="パス 7376" d="M842.656,1058.645s-11.842.807-16.955,10.9l-1.48-5.248s-1.48-6.594,3.768-7S842.656,1058.645,842.656,1058.645Z" transform="translate(14537.754 3653.225)" fill="#008bba"/>
        <path id="パス_7377" data-name="パス 7377" d="M905.649,1057.538s.942,6.728,1.884,12.649a19.2,19.2,0,0,0,1.161-9.655Z" transform="translate(14472.608 3652.986)" fill="#008bba"/>
      </g>
    </g>
    <g id="楕円形_321" data-name="楕円形 321" transform="translate(1276.384 3665.788)" fill="none" stroke="#008bba" stroke-width="1">
      <ellipse cx="29.808" cy="29.808" rx="29.808" ry="29.808" stroke="none"/>
      <ellipse cx="29.808" cy="29.808" rx="29.308" ry="29.308" fill="none"/>
    </g>
  </g>
</svg>
