<?xml version="1.0" encoding="utf-8"?>
<!-- Generator: Adobe Illustrator 27.4.0, SVG Export Plug-In . SVG Version: 6.00 Build 0)  -->
<svg version="1.1" id="レイヤー_1" xmlns="http://www.w3.org/2000/svg" xmlns:xlink="http://www.w3.org/1999/xlink" x="0px"
	 y="0px" viewBox="0 0 312.5 150" style="enable-background:new 0 0 312.5 150;" xml:space="preserve">
<style type="text/css">
	.st0{fill:#1B6EC3;}
	.st1{enable-background:new    ;}
	.st2{fill:#FFFFFF;}
	.st3{fill:#74CAF3;}
	.st4{fill:#0099DB;}
	.st5{fill:#16B3EE;}
	.st6{fill:#47AE95;}
	.st7{fill:#007BC5;}
	.st8{fill:#3199D8;}
	.st9{fill:#005EAE;}
	.st10{fill:#007DCB;}
	.st11{fill:#27AAA8;}
	.st12{fill:#0095B4;}
	.st13{fill:#0098E7;}
	.st14{fill:#00ABA9;}
	.st15{fill:#00A6EA;}
	.st16{fill:#D9F0FC;}
</style>
<g id="グループ_26547" transform="translate(-3189.96 -7778.164)">
	<g id="グループ_26108" transform="translate(3242.215 7778.164)">
		<circle id="楕円形_122" class="st0" cx="16" cy="16" r="16"/>
		<circle id="楕円形_126" class="st0" cx="53.8" cy="16" r="16"/>
		<circle id="楕円形_128" class="st0" cx="91.6" cy="16" r="16"/>
		<circle id="楕円形_130" class="st0" cx="128.3" cy="16" r="16"/>
		<circle id="楕円形_132" class="st0" cx="162.4" cy="16" r="16"/>
		<circle id="楕円形_124" class="st0" cx="35.3" cy="16" r="16"/>
		<circle id="楕円形_125" class="st0" cx="73.1" cy="16" r="16"/>
		<circle id="楕円形_127" class="st0" cx="110.1" cy="16" r="16"/>
		<circle id="楕円形_129" class="st0" cx="146.4" cy="16" r="16"/>
		<circle id="楕円形_131" class="st0" cx="181.2" cy="16" r="16"/>
		<circle id="楕円形_133" class="st0" cx="199.7" cy="16" r="16"/>
	</g>
	<g class="st1">
		<path class="st2" d="M3268.5,7800.3c-1-0.2-2-0.6-2.9-1.1s-1.7-1.1-2.4-1.9c-0.7-0.8-1.2-1.7-1.6-2.7h-1.8v3.3
			c0.7-0.1,1.3-0.3,1.9-0.4c0.6-0.1,1-0.2,1.4-0.3v1.6c-0.3,0.1-0.7,0.2-1.2,0.3s-1,0.2-1.6,0.4c-0.6,0.1-1.1,0.2-1.7,0.4
			c-0.6,0.1-1.1,0.2-1.6,0.3c-0.5,0.1-0.8,0.1-1.1,0.2l-0.6-1.7c0.2,0,0.6-0.1,1.1-0.1c0.5-0.1,1-0.1,1.5-0.2v-3.6h-2.9v-1.5h2.9v-7
			h10v1.5h-8.1v0.9h7.3v1.4h-7.3v0.9h7.3v1.4h-7.3v0.9h9.8v1.5h-2.4l1.1,1c-0.3,0.3-0.7,0.5-1.1,0.9s-0.9,0.6-1.3,0.9
			c0.5,0.3,1.1,0.6,1.8,0.8s1.3,0.4,1.9,0.5c-0.1,0.1-0.2,0.3-0.4,0.5c-0.1,0.2-0.3,0.4-0.4,0.6
			C3268.7,7799.9,3268.6,7800.1,3268.5,7800.3z M3264.6,7796.2c0.2-0.1,0.5-0.3,0.7-0.5s0.5-0.4,0.8-0.6c0.3-0.2,0.5-0.4,0.7-0.6
			h-3.4C3263.7,7795.1,3264.1,7795.7,3264.6,7796.2z"/>
		<path class="st2" d="M3272.6,7799.6l-0.3-1.7c0.3,0,0.7-0.1,1.3-0.2c0.6-0.1,1.2-0.2,1.8-0.3v-1.6h-2.6v-1.6h2.6v-1.3h-2.7v-6.9
			h7.1v6.9h-2.7v1.3h2.5v1.6h-2.5v1.4c0.6-0.1,1.1-0.2,1.6-0.3c0.5-0.1,0.8-0.2,1.1-0.2v1.5c-0.5,0.1-1,0.3-1.7,0.4
			c-0.7,0.1-1.3,0.3-2,0.4c-0.7,0.1-1.4,0.2-2,0.3C3273.5,7799.5,3273,7799.6,3272.6,7799.6z M3274.3,7788.9h1.1v-1.3h-1.1V7788.9z
			 M3274.3,7791.5h1.1v-1.3h-1.1V7791.5z M3277.1,7788.9h1.1v-1.3h-1.1V7788.9z M3277.1,7791.5h1.1v-1.3h-1.1V7791.5z
			 M3280.6,7800.1c0-0.2-0.1-0.4-0.1-0.6c0-0.2-0.1-0.5-0.1-0.7c-0.1-0.2-0.1-0.4-0.2-0.6h1.2c0.2,0,0.4,0,0.5-0.1
			c0.1-0.1,0.1-0.2,0.1-0.4v-4.9h-1.9v-1.5h3.5c-0.5-0.4-1-0.7-1.5-1.1s-1-0.6-1.5-0.8l1-1.4c0.2,0.1,0.4,0.2,0.7,0.3
			c0.2,0.1,0.5,0.2,0.7,0.4c0.1-0.2,0.3-0.4,0.5-0.6c0.2-0.2,0.3-0.4,0.4-0.6h-3.6v-1.5h5.7l0.8,0.7c-0.2,0.3-0.5,0.6-0.8,0.9
			c-0.3,0.3-0.6,0.7-0.9,1c-0.3,0.3-0.6,0.6-0.8,0.9c0.3,0.2,0.6,0.5,0.9,0.7l-0.7,1h2l0.9,0.8c-0.2,0.4-0.4,0.8-0.7,1.3
			c-0.3,0.5-0.6,0.9-0.9,1.4c-0.3,0.4-0.6,0.8-0.9,1.1c-0.1-0.1-0.3-0.2-0.5-0.4c-0.2-0.1-0.4-0.3-0.6-0.4v3.4c0,0.6-0.2,1-0.5,1.3
			s-0.8,0.4-1.5,0.4H3280.6z M3283.9,7794.6c0.2-0.3,0.5-0.6,0.7-0.9c0.2-0.3,0.4-0.6,0.5-0.8h-1.3V7794.6z"/>
		<path class="st2" d="M3291.7,7799.9c-0.1-0.1-0.2-0.3-0.4-0.5c-0.2-0.2-0.3-0.4-0.5-0.6c-0.2-0.2-0.3-0.3-0.5-0.4
			c0.3-0.1,0.6-0.3,0.9-0.5c0.3-0.2,0.7-0.4,1-0.7c0.3-0.2,0.6-0.5,0.9-0.8s0.5-0.5,0.7-0.7l1.5,1.2c-0.3,0.3-0.6,0.7-1,1
			c-0.4,0.4-0.9,0.7-1.3,1.1S3292.1,7799.7,3291.7,7799.9z M3296.3,7800.2v-4.5h-5.7v-9.2h1.8v7.6h12v1.6h-6.2v4.5H3296.3z
			 M3293.7,7793.4v-7.6h8.8v7.6H3293.7z M3295.6,7788h5v-0.9h-5V7788z M3295.6,7790h5v-0.9h-5V7790z M3295.6,7792.1h5v-0.9h-5
			V7792.1z M3302.7,7799.9c-0.4-0.2-0.8-0.5-1.3-0.8c-0.5-0.3-0.9-0.7-1.3-1.1c-0.4-0.4-0.8-0.7-1-1l1.4-1.2
			c0.2,0.2,0.4,0.4,0.7,0.7s0.6,0.5,0.9,0.8c0.3,0.2,0.7,0.5,1,0.7c0.3,0.2,0.7,0.4,0.9,0.5c-0.1,0.1-0.3,0.2-0.5,0.4
			c-0.2,0.2-0.3,0.4-0.5,0.6C3302.9,7799.6,3302.8,7799.8,3302.7,7799.9z"/>
		<path class="st2" d="M3309.3,7800.1v-8.3c-0.2,0.3-0.4,0.5-0.6,0.7c-0.2,0.2-0.4,0.4-0.6,0.6c-0.2-0.2-0.4-0.4-0.6-0.6
			c-0.3-0.2-0.5-0.4-0.7-0.5c0.4-0.4,0.8-0.8,1.2-1.4c0.4-0.6,0.8-1.2,1.2-1.8c0.4-0.6,0.7-1.3,1-1.9c0.3-0.6,0.5-1.1,0.6-1.6
			l1.7,0.6c-0.3,1-0.7,1.9-1.2,2.9v11.2H3309.3z M3311.9,7789.8v-1.5h10v1.5H3311.9z M3313,7799.8v-4.7h7.8v4.7H3313z
			 M3313.2,7787.5v-1.4h7.2v1.4H3313.2z M3313.2,7792v-1.5h7.2v1.5H3313.2z M3313.2,7794.3v-1.4h7.2v1.4H3313.2z M3315,7798.2h3.8
			v-1.6h-3.8V7798.2z"/>
		<path class="st2" d="M3326.3,7800.2c-0.3-0.2-0.6-0.3-0.9-0.5s-0.6-0.3-0.9-0.4c0.6-0.8,1-1.7,1.3-2.9s0.4-2.5,0.4-4v-6.3h12v12.3
			c0,1.1-0.7,1.7-2.1,1.7h-1.2c0-0.2,0-0.4-0.1-0.6c0-0.2-0.1-0.5-0.1-0.7c0-0.2-0.1-0.4-0.2-0.6h1.1c0.2,0,0.4,0,0.5-0.1
			s0.1-0.2,0.1-0.4v-2.7h-3.2v4.7h-1.9v-4.7h-3.2c-0.1,1.1-0.3,2-0.6,2.9C3327.2,7798.6,3326.8,7799.4,3326.3,7800.2z
			 M3328.2,7793.3h3.1v-1.9h-3v1c0,0.1,0,0.3,0,0.4S3328.2,7793.1,3328.2,7793.3z M3328.2,7789.6h3v-1.9h-3V7789.6z M3333.2,7789.6
			h3.2v-1.9h-3.2V7789.6z M3333.2,7793.3h3.2v-1.9h-3.2V7793.3z"/>
		<path class="st2" d="M3344,7800.1v-7.9c-0.2,0.2-0.3,0.5-0.5,0.7c-0.2,0.2-0.3,0.4-0.5,0.6c-0.2-0.2-0.4-0.4-0.7-0.6
			c-0.3-0.2-0.5-0.3-0.8-0.5c0.4-0.4,0.7-0.9,1.1-1.4c0.4-0.6,0.7-1.2,1-1.9s0.6-1.3,0.8-2c0.2-0.6,0.4-1.2,0.4-1.6l1.8,0.4
			c-0.1,0.5-0.2,0.9-0.4,1.4c-0.2,0.5-0.3,1-0.6,1.5v8.8c0.4-0.2,0.8-0.5,1.3-0.9c0.5-0.4,1-0.8,1.5-1.2s0.9-0.8,1.2-1.2h-3.5v-1.7
			h4.1v-1.3h-3.1v-5.4h8v5.4h-3.1v1.3h4.1v1.7h-3.5c0.3,0.3,0.6,0.6,1,0.9c0.4,0.3,0.7,0.6,1.1,0.9c0.4,0.3,0.8,0.6,1.2,0.8
			c0.4,0.2,0.7,0.4,1,0.6c-0.2,0.2-0.4,0.4-0.6,0.7s-0.4,0.5-0.5,0.8c-0.6-0.4-1.2-0.8-1.9-1.3c-0.7-0.5-1.3-1.1-1.8-1.7v4h-1.9v-4
			c-0.5,0.6-1.1,1.2-1.8,1.7c-0.7,0.6-1.3,1-1.9,1.4c-0.1-0.2-0.3-0.4-0.5-0.6s-0.4-0.4-0.6-0.6v2.2H3344z M3349.4,7789.8h4.1v-2
			h-4.1V7789.8z"/>
		<path class="st2" d="M3359.7,7789.9v-1.5h6.1v1.5H3359.7z M3360.3,7799.8v-4.7h4.9v4.7H3360.3z M3360.4,7787.6v-1.4h4.5v1.4
			H3360.4z M3360.4,7792.1v-1.4h4.5v1.4H3360.4z M3360.4,7794.3v-1.4h4.5v1.4H3360.4z M3361.9,7798.3h1.6v-1.7h-1.6V7798.3z
			 M3365.7,7799.8v-1.7h0.8v-7.6h1.8v7.6h1.1v-10.2h-3.5v-1.6h8v1.6h-2.7v3.7h2.5v1.8h-2.5v4.7h3v1.7H3365.7z"/>
		<path class="st2" d="M3378.4,7800.1v-9.3h-1.6v-1.8h1.6v-3.5h1.8v3.5h1.5v1.8h-1.5v8.2c0.5-0.5,1-1,1.3-1.6c0.3-0.6,0.5-1.3,0.6-2
			h-1.4v-1.6h1.5c0-0.2,0-0.4,0-0.6s0-0.4,0-0.6h0.4c-0.1-0.2-0.3-0.4-0.4-0.7c-0.2-0.3-0.4-0.5-0.5-0.6c0.8-0.3,1.5-0.6,1.9-1
			c0.5-0.4,0.8-0.9,1-1.5h-2.4v-1.6h2.8c0-0.2,0-0.5,0-0.7c0-0.3,0-0.5,0-0.8h1.8c0,0.3,0,0.5,0,0.8c0,0.2,0,0.5-0.1,0.7h3.5
			c0,1.1-0.1,2-0.2,2.7c-0.1,0.7-0.2,1.2-0.4,1.6c-0.2,0.4-0.5,0.6-0.8,0.7s-0.7,0.2-1.2,0.2h-0.9c0-0.2-0.1-0.5-0.1-0.9
			c-0.1-0.4-0.2-0.6-0.2-0.8h0.9c0.4,0,0.7-0.1,0.8-0.4s0.2-0.7,0.3-1.5h-2c-0.3,0.9-0.7,1.7-1.3,2.3c-0.6,0.6-1.3,1.1-2.2,1.5h0.8
			c0,0.2,0,0.3,0,0.4c0,0.1,0,0.3,0,0.4c0,0.1,0,0.1,0,0.2s0,0.1,0,0.2h2.2c0,0.5,0,1.1,0,1.7c0,0.6,0,1.1-0.1,1.6
			c0,0.5-0.1,0.9-0.2,1.2c0,0.1-0.1,0.3-0.1,0.4s-0.1,0.2-0.1,0.3c0.5-0.5,0.9-1,1.2-1.6s0.5-1.3,0.6-2h-1v-1.6h1.1
			c0-0.2,0-0.4,0-0.6c0-0.2,0-0.4,0-0.7h1.6c0,0.2,0,0.4,0,0.7c0,0.2,0,0.4,0,0.6h2.4c0,0.5,0,1.1,0,1.7s-0.1,1.1-0.1,1.7
			c0,0.5-0.1,0.9-0.2,1.3c-0.1,0.6-0.4,1.1-0.7,1.3s-0.8,0.4-1.5,0.4h-0.6c0-0.2-0.1-0.5-0.1-0.8c-0.1-0.3-0.1-0.6-0.2-0.8
			c-0.1,0.3-0.3,0.5-0.5,0.8c-0.2,0.3-0.4,0.5-0.6,0.8c-0.1-0.1-0.2-0.2-0.4-0.3s-0.4-0.2-0.6-0.3c-0.2-0.1-0.4-0.2-0.5-0.2
			c-0.2,0.3-0.4,0.5-0.7,0.6s-0.7,0.2-1.1,0.2h-0.6c0-0.2,0-0.4-0.1-0.7s-0.1-0.5-0.2-0.7c-0.3,0.5-0.7,1-1.1,1.5
			c-0.1-0.1-0.2-0.2-0.4-0.3c-0.2-0.1-0.4-0.2-0.5-0.3c-0.2-0.1-0.4-0.2-0.5-0.2v1H3378.4z M3382.8,7798.4h0.6c0.3,0,0.6,0,0.7-0.1
			c0.1-0.1,0.2-0.3,0.2-0.5c0-0.2,0.1-0.4,0.1-0.7c0-0.3,0-0.6,0.1-0.9c0-0.3,0-0.6,0-0.8h-0.8c-0.1,0.6-0.2,1.1-0.3,1.6
			C3383.2,7797.4,3383,7797.9,3382.8,7798.4z M3388,7798.4h0.7c0.3,0,0.6,0,0.7-0.1c0.1-0.1,0.2-0.3,0.3-0.5c0-0.2,0.1-0.4,0.1-0.7
			c0-0.3,0-0.6,0.1-0.9c0-0.3,0-0.6,0-0.8h-0.9c-0.1,0.6-0.2,1.1-0.3,1.6C3388.5,7797.5,3388.3,7798,3388,7798.4z"/>
		<path class="st2" d="M3395.2,7792.3c-0.1-0.1-0.2-0.3-0.3-0.5c-0.1-0.2-0.3-0.4-0.4-0.6s-0.3-0.3-0.4-0.5c0.7-0.3,1.3-0.6,2-1
			s1.4-0.9,2-1.4c0.7-0.5,1.2-1,1.7-1.5c0.5-0.5,0.9-1,1.2-1.5l1.8,0.3c0.3,0.5,0.8,0.9,1.3,1.4c0.5,0.5,1.1,0.9,1.8,1.4
			c0.6,0.4,1.3,0.8,1.9,1.2c0.7,0.4,1.3,0.6,1.9,0.9c-0.2,0.1-0.3,0.3-0.5,0.5s-0.3,0.4-0.5,0.7c-0.2,0.2-0.3,0.4-0.3,0.6
			c-0.4-0.2-0.8-0.4-1.3-0.6c-0.4-0.2-0.9-0.5-1.3-0.8v1.4h-7.7v-1.4c-0.5,0.3-1,0.6-1.5,0.9
			C3396,7791.9,3395.6,7792.1,3395.2,7792.3z M3406.6,7800.3c-0.1-0.2-0.3-0.5-0.5-0.8s-0.4-0.6-0.7-0.9c-0.5,0.1-1.1,0.2-1.7,0.3
			c-0.6,0.1-1.3,0.2-2,0.3c-0.7,0.1-1.4,0.2-2.1,0.3c-0.7,0.1-1.3,0.1-2,0.2s-1.1,0.1-1.5,0.1l-0.4-1.9c0.2,0,0.5,0,0.9,0
			s0.7,0,1.1-0.1c0.2-0.4,0.5-0.8,0.8-1.3c0.3-0.5,0.5-1,0.7-1.5h-3.9v-1.7h13.1v1.7h-3.9c0.3,0.2,0.6,0.5,1,0.8
			c0.4,0.3,0.7,0.7,1.1,1.1c0.4,0.4,0.7,0.8,1,1.1c0.3,0.4,0.5,0.7,0.7,1c-0.1,0.1-0.3,0.2-0.5,0.4c-0.2,0.2-0.4,0.3-0.6,0.5
			C3406.9,7800.1,3406.7,7800.2,3406.6,7800.3z M3398.4,7790.4h6.8c-0.7-0.4-1.3-0.9-1.9-1.4c-0.6-0.5-1.1-1-1.5-1.6
			c-0.4,0.5-0.8,1-1.5,1.5C3399.7,7789.4,3399.1,7789.9,3398.4,7790.4z M3400.1,7797.6c0.7-0.1,1.4-0.1,2.1-0.2s1.3-0.2,1.9-0.2
			c-0.5-0.5-0.9-0.8-1.2-1.1l1.2-1.1h-2.7c-0.2,0.4-0.4,0.9-0.6,1.3S3400.3,7797.2,3400.1,7797.6z"/>
		<path class="st2" d="M3420.8,7800.3c-0.1-0.2-0.3-0.4-0.4-0.6c-0.2-0.2-0.4-0.4-0.5-0.6c0.1-0.1,0.3-0.2,0.4-0.3
			c0.1-0.1,0.3-0.2,0.4-0.3h-3.3v-5.2h4.5v4.3c0.2-0.2,0.4-0.4,0.6-0.6c0.2-0.2,0.4-0.4,0.6-0.6c-0.1-0.5-0.2-1.1-0.3-1.7
			c-0.1-0.6-0.1-1.3-0.2-2h-5.8v-1.5h1.2c-0.1-0.3-0.2-0.6-0.3-1c-0.1-0.4-0.2-0.7-0.4-1l1.3-0.5c0.1,0.3,0.3,0.6,0.4,1
			s0.2,0.8,0.3,1.1l-1,0.3h1.3c0.1-0.2,0.2-0.5,0.3-0.8c0.1-0.3,0.2-0.6,0.3-0.9c0.1-0.3,0.2-0.5,0.2-0.7h-3.4v-1.1h-0.5v12.4h-1.4
			v-3.1c-0.3,0.1-0.6,0.2-1,0.3c-0.4,0.1-0.7,0.2-1.1,0.3c-0.4,0.1-0.7,0.2-0.9,0.3l-0.4-1.6c0.1,0,0.3-0.1,0.4-0.1
			c0.2,0,0.3-0.1,0.5-0.1v-8.5h-0.8v-1.5h5.4v1.1h1.4v-1.7h1.7v1.7h1.7v1.4h-1.5l1.4,0.4c-0.1,0.3-0.2,0.6-0.3,1
			c-0.1,0.4-0.3,0.7-0.4,1.1h1.4c0-0.8-0.1-1.7-0.1-2.6s0-1.9,0-3h1.6c0,0.4,0,0.8,0,1.2c0,0.4,0,0.8,0,1.2l1.2-0.7
			c0.2,0.3,0.5,0.7,0.7,1.2c0.2,0.4,0.4,0.9,0.6,1.2c-0.2,0.1-0.4,0.2-0.7,0.3c-0.3,0.1-0.5,0.3-0.7,0.4c-0.1-0.3-0.3-0.7-0.5-1.1
			c-0.2-0.4-0.4-0.8-0.6-1.1c0,0.5,0,1,0,1.5c0,0.5,0,1,0.1,1.5h2.5v1.5h-2.4c0,0.3,0.1,0.6,0.1,1c0,0.3,0.1,0.6,0.1,0.9
			c0.1-0.2,0.2-0.5,0.4-0.7c0.1-0.2,0.2-0.5,0.3-0.7l1.4,0.7c-0.2,0.5-0.5,1-0.7,1.4c-0.3,0.5-0.6,0.9-0.9,1.4
			c0.1,0.3,0.2,0.5,0.2,0.7c0.1,0.2,0.2,0.4,0.3,0.6c0.1-0.2,0.2-0.5,0.2-0.8s0.1-0.5,0.1-0.8c0.1,0.1,0.3,0.2,0.5,0.2
			c0.2,0.1,0.4,0.2,0.5,0.2c0.2,0.1,0.3,0.1,0.4,0.1c-0.1,0.3-0.1,0.6-0.2,0.9c-0.1,0.3-0.2,0.6-0.3,0.9s-0.2,0.6-0.3,0.8
			c-0.2,0.4-0.5,0.6-0.9,0.6c-0.4,0-0.7-0.2-1-0.6c-0.1-0.2-0.3-0.5-0.4-0.7c-0.1-0.2-0.3-0.5-0.4-0.8
			C3422.7,7799,3421.8,7799.7,3420.8,7800.3z M3414,7789.4h1v-1.6h-1V7789.4z M3414,7792.6h1v-1.7h-1V7792.6z M3414,7795.9
			c0.2-0.1,0.4-0.1,0.5-0.1c0.2,0,0.3-0.1,0.5-0.1v-1.4h-1V7795.9z M3418.9,7795.4h1.4v-0.8h-1.4V7795.4z M3418.9,7797.3h1.4v-0.8
			h-1.4V7797.3z"/>
		<path class="st2" d="M3442.3,7800.4c-0.5-0.2-1-0.4-1.6-0.6c-0.6-0.3-1.1-0.5-1.7-0.8c-0.5-0.3-1-0.6-1.3-0.8l0.8-0.8h-3.7
			l0.8,0.8c-0.4,0.3-0.8,0.5-1.3,0.8c-0.5,0.3-1.1,0.5-1.7,0.8c-0.6,0.3-1.1,0.5-1.6,0.6c-0.1-0.1-0.2-0.3-0.3-0.5
			c-0.1-0.2-0.3-0.4-0.4-0.5c-0.1-0.2-0.3-0.3-0.4-0.4c0.3-0.1,0.7-0.2,1.2-0.4c0.5-0.2,0.9-0.4,1.4-0.6c0.5-0.2,0.9-0.4,1.3-0.7
			h-2.4v-7.2h10.6v7.2h-2.4c0.4,0.2,0.8,0.4,1.3,0.6c0.5,0.2,1,0.4,1.4,0.5s0.9,0.3,1.2,0.4c-0.1,0.1-0.3,0.3-0.4,0.4
			c-0.1,0.2-0.3,0.4-0.4,0.6C3442.5,7800,3442.4,7800.2,3442.3,7800.4z M3431.8,7789.4v-3.6h9.7v3.6H3431.8z M3433.4,7792.1h6.6
			v-0.7h-6.6V7792.1z M3433.4,7794.1h6.6v-0.7h-6.6V7794.1z M3433.4,7796h6.6v-0.7h-6.6V7796z M3433.8,7788.1h5.8v-0.9h-5.8V7788.1z
			"/>
	</g>
	<g id="グループ_26410" transform="translate(3189.96 7833.512)">
		<path id="パス_6673" class="st3" d="M84.6,28.4h-57c-3.3-0.1-5.9-2.9-5.8-6.2v-0.3c-0.1-3.3,2.5-6.1,5.8-6.2h57
			c3.3,0.1,5.9,2.9,5.8,6.2v0.3C90.5,25.5,87.9,28.3,84.6,28.4"/>
		<path id="パス_6674" class="st4" d="M6.3,87.9l12.4-67.7c0.4-3.1,3.7-5.4,7.4-5.1c3.6,0.3,6.2,3.1,5.8,6.2L19.5,88.9
			c-0.4,3.1-3.7,5.4-7.4,5.1C8.4,93.8,5.9,91,6.3,87.9"/>
		<path id="パス_6676" class="st4" d="M63.5,50.7l4.1-16c0.7-2.3,3.1-3.6,5.4-3c2.3,0.6,3.7,2.9,3.1,5.2c0,0,0,0,0,0l-4.1,16
			c-0.7,2.3-3.1,3.6-5.4,3C64.2,55.4,62.8,53,63.5,50.7C63.4,50.7,63.4,50.7,63.5,50.7"/>
		<path id="パス_6677" class="st0" d="M32.8,50.7l4.1-16c0.7-2.3,3.1-3.6,5.4-3c2.3,0.6,3.7,2.9,3.1,5.2c0,0,0,0,0,0l-4.1,16
			c-0.7,2.3-3.1,3.6-5.4,3C33.6,55.4,32.2,53,32.8,50.7C32.8,50.7,32.8,50.7,32.8,50.7"/>
		<path id="パス_6680" class="st3" d="M53.1,85V64.3c0-3.3,2.7-6,6-6c3.3,0,6,2.7,6,6c0,0,0,0,0,0V85c0,3.3-2.7,6-6,6c0,0,0,0,0,0
			h0.5C56.3,91,53.1,88.3,53.1,85"/>
		<path id="パス_6681" class="st5" d="M58.3,48.6c0,4-3.3,7.3-7.3,7.3s-7.3-3.3-7.3-7.3c0-4,3.3-7.3,7.3-7.3
			C55,41.3,58.3,44.5,58.3,48.6L58.3,48.6"/>
		<path id="パス_6682" class="st6" d="M89.6,48.6c0,4-3.3,7.3-7.3,7.3c-4,0-7.3-3.3-7.3-7.3c0-4,3.3-7.3,7.3-7.3
			C86.3,41.3,89.6,44.5,89.6,48.6C89.6,48.6,89.6,48.6,89.6,48.6"/>
		<path id="パス_6683" class="st5" d="M64.3,6.6c0,3.7-3,6.6-6.6,6.6c-3.7,0-6.6-3-6.6-6.6C51,3,53.9,0,57.6,0
			C61.3,0,64.3,3,64.3,6.6C64.3,6.6,64.3,6.6,64.3,6.6"/>
		<path id="パス_6694" class="st4" d="M75.4,75.7H42.7c-2.9,0.1-5.3-2.2-5.3-5.1c-0.1-2.9,2.2-5.3,5.1-5.3c0.1,0,0.1,0,0.2,0h32.7
			c2.9-0.1,5.3,2.2,5.3,5.1s-2.2,5.3-5.1,5.3C75.6,75.7,75.5,75.7,75.4,75.7"/>
		<path id="パス_6698" class="st7" d="M86.4,92.2H30.1c-2.9,0.1-5.3-2.2-5.4-5.1V87c0.1-2.9,2.5-5.2,5.4-5.1h56.2
			c2.9-0.1,5.3,2.2,5.4,5.1v0.1C91.7,90,89.2,92.3,86.4,92.2"/>
	</g>
	<g id="グループ_26409" transform="translate(3296.481 7833.119)">
		<path id="パス_6684" class="st5" d="M27.3,6.7c0,3.7-3,6.7-6.7,6.7c-3.7,0-6.7-3-6.7-6.7C14,3,17,0,20.7,0c0,0,0,0,0,0
			C24.4,0,27.3,3,27.3,6.7C27.3,6.7,27.3,6.7,27.3,6.7"/>
		<path id="パス_6685" class="st8" d="M59.3,17.8c0,3.3-2.7,6-6,6c-3.3,0-6-2.7-6-6c0-3.3,2.7-6,6-6c0,0,0,0,0,0
			C56.7,11.8,59.3,14.5,59.3,17.8C59.3,17.8,59.3,17.8,59.3,17.8"/>
		<path id="パス_6686" class="st5" d="M92.4,17.5c0,3.1-2.6,5.7-5.7,5.7S81,20.7,81,17.5c0-3.1,2.6-5.7,5.7-5.7c0,0,0,0,0,0
			C89.9,11.8,92.4,14.4,92.4,17.5"/>
		<path id="パス_6687" class="st5" d="M38.5,76.9c0,9.3-7.6,16.9-16.9,16.9S4.7,86.3,4.7,76.9c0-9.3,7.6-16.9,16.9-16.9
			S38.5,67.6,38.5,76.9L38.5,76.9"/>
		<path id="パス_6688" class="st9" d="M30.3,76.7c0,4.9-3.9,8.8-8.8,8.8s-8.8-3.9-8.8-8.8c0-4.9,3.9-8.8,8.8-8.8
			S30.3,71.9,30.3,76.7L30.3,76.7"/>
		<path id="パス_6689" class="st10" d="M51.9,39.3L66.8,11C68.4,8.1,72.1,7,75,8.6c2.9,1.6,4.1,5.3,2.5,8.2l0,0L62.6,45
			c-1.6,2.9-5.3,4.1-8.2,2.5C51.5,45.9,50.4,42.2,51.9,39.3"/>
		<path id="パス_6690" class="st5" d="M87.9,38L76.3,22.8c-2.3-3.1-6.5-3.9-9.3-1.8s-3.1,6.3-0.8,9.4l11.6,15.2
			c2.3,3.1,6.5,3.9,9.3,1.8S90.3,41.1,87.9,38"/>
		<path id="パス_6691" class="st5" d="M58.8,60c0,3.6-2.9,6.6-6.6,6.6c-3.6,0-6.6-2.9-6.6-6.6c0-3.6,2.9-6.6,6.6-6.6
			C55.8,53.5,58.8,56.4,58.8,60"/>
		<path id="パス_6692" class="st0" d="M93.1,60.5c0,3.4-2.8,6.2-6.2,6.2c-3.4,0-6.2-2.8-6.2-6.2c0-3.4,2.8-6.2,6.2-6.2
			c0,0,0,0,0,0C90.3,54.3,93.1,57.1,93.1,60.5"/>
		<path id="パス_6693" class="st11" d="M48.4,84.2l17-31.1c1.6-3,5.3-4.1,8.2-2.5c3,1.6,4.1,5.3,2.5,8.2c-0.1,0.1-0.1,0.2-0.2,0.4
			L59,90.3c-1.8,2.9-5.5,3.7-8.4,1.9C47.9,90.5,47,87.1,48.4,84.2"/>
		<path id="パス_6695" class="st4" d="M38,27.3H5.2C2.3,27.3,0,25,0,22.1v-0.4c0-2.9,2.3-5.2,5.2-5.2c0,0,0,0,0,0H38
			c2.9,0,5.2,2.3,5.2,5.2c0,0,0,0,0,0v0.4C43.2,25,40.9,27.3,38,27.3L38,27.3"/>
		<path id="パス_6696" class="st3" d="M30.3,41.5H10.7c-2.7,0-4.9-2.2-4.9-4.9s2.2-4.9,4.9-4.9h19.6c2.7,0,4.9,2.2,4.9,4.9
			S33,41.5,30.3,41.5"/>
		<path id="パス_6697" class="st12" d="M30.7,55.5H11c-2.7,0-4.9-2.2-4.9-4.9s2.2-4.9,4.9-4.9h19.7c2.7,0,4.9,2.2,4.9,4.9
			S33.4,55.5,30.7,55.5"/>
		<path id="パス_6702" class="st3" d="M88.9,82L76.1,65.3c-2.6-3.4-7.1-4.3-10.1-2.1c-3,2.3-3.4,6.9-0.8,10.3L78,90.2
			c2.6,3.4,7.1,4.3,10.1,2.1S91.5,85.4,88.9,82"/>
	</g>
	<g id="グループ_26411" transform="translate(3404.212 7836.891)">
		<path id="パス_6675" class="st3" d="M94.9,38.5L51.6,3.4c-3-1.9-6.9-1-8.8,2c-0.1,0.1-0.2,0.2-0.2,0.4c-1.9,3.3-0.9,7.4,2.3,9.5
			l43.3,35.1c3,1.9,6.9,1,8.8-2c0.1-0.1,0.1-0.2,0.2-0.4C99,44.7,98.1,40.6,94.9,38.5"/>
		<path id="パス_6678" class="st13" d="M17.1,77.7l15.3-14c2.4-2.1,5.8-2.3,8.4-0.7c2.5,1.7,2.9,4.7,0.8,6.7l-15.3,14
			c-2.4,2.1-5.8,2.3-8.4,0.7C15.4,82.8,15,79.8,17.1,77.7"/>
		<path id="パス_6679" class="st3" d="M21.4,76.2L64,74.1c3.5-0.4,7.1,1.8,7.9,4.9c0.8,3.1-1.3,6-4.9,6.4l-42.7,2.1
			c-3.5,0.4-8-1.1-8.6-5.2C15.3,79.2,17.8,76.6,21.4,76.2"/>
		<path id="パス_6699" class="st0" d="M57.8,44h-19c-2.3,0-4.3-2.2-4.3-5s1.9-5,4.3-5h19c2.3,0,4.3,2.2,4.3,5S60.2,44,57.8,44"/>
		<path id="パス_6700" class="st14" d="M72,58.8H23.6c-2.9-0.2-5-2.7-4.8-5.5c0.2-2.6,2.2-4.7,4.8-4.8H72c2.9,0.2,5,2.7,4.8,5.5
			C76.7,56.5,74.6,58.6,72,58.8"/>
		<path id="パス_6701" class="st4" d="M2.5,42.2L44.1,1.9c2.2-2.3,5.9-2.4,8.2-0.2c0.1,0.1,0.1,0.1,0.2,0.2c2.3,2.4,2.3,6.3,0,8.7
			L11,50.9c-2.2,2.3-5.9,2.4-8.2,0.2c-0.1-0.1-0.1-0.1-0.2-0.2C0.2,48.5,0.2,44.7,2.5,42.2"/>
		<path id="パス_6703" class="st15" d="M84.2,76.5c0,8-6.5,14.6-14.6,14.6S55,84.6,55,76.5S61.6,62,69.6,62
			C77.7,62,84.2,68.5,84.2,76.5C84.2,76.5,84.2,76.5,84.2,76.5"/>
		<path id="パス_6704" class="st16" d="M76.5,76.5c0,3.8-3.1,7-7,7c-3.8,0-7-3.1-7-7s3.1-7,7-7l0,0C73.4,69.5,76.5,72.6,76.5,76.5
			"/>
	</g>
</g>
</svg>
