<svg xmlns="http://www.w3.org/2000/svg" width="312.493" height="150.028" viewBox="0 0 312.493 150.028">
  <g id="グループ_26547" data-name="グループ 26547" transform="translate(-3189.96 -7778.164)">
    <g id="グループ_26108" data-name="グループ 26108" transform="translate(3242.215 7778.164)">
      <circle id="楕円形_122" data-name="楕円形 122" cx="16.008" cy="16.008" r="16.008" transform="translate(0)" fill="#1b6ec3"/>
      <circle id="楕円形_126" data-name="楕円形 126" cx="16.008" cy="16.008" r="16.008" transform="translate(37.832)" fill="#1b6ec3"/>
      <circle id="楕円形_128" data-name="楕円形 128" cx="16.008" cy="16.008" r="16.008" transform="translate(75.579)" fill="#1b6ec3"/>
      <circle id="楕円形_130" data-name="楕円形 130" cx="16.008" cy="16.008" r="16.008" transform="translate(112.259)" fill="#1b6ec3"/>
      <circle id="楕円形_132" data-name="楕円形 132" cx="16.008" cy="16.008" r="16.008" transform="translate(146.379)" fill="#1b6ec3"/>
      <circle id="楕円形_124" data-name="楕円形 124" cx="16.008" cy="16.008" r="16.008" transform="translate(19.324)" fill="#1b6ec3"/>
      <circle id="楕円形_125" data-name="楕円形 125" cx="16.008" cy="16.008" r="16.008" transform="translate(57.072)" fill="#1b6ec3"/>
      <circle id="楕円形_127" data-name="楕円形 127" cx="16.008" cy="16.008" r="16.008" transform="translate(94.087)" fill="#1b6ec3"/>
      <circle id="楕円形_129" data-name="楕円形 129" cx="16.008" cy="16.008" r="16.008" transform="translate(130.37)" fill="#1b6ec3"/>
      <circle id="楕円形_131" data-name="楕円形 131" cx="16.008" cy="16.008" r="16.008" transform="translate(165.19)" fill="#1b6ec3"/>
      <circle id="楕円形_133" data-name="楕円形 133" cx="16.008" cy="16.008" r="16.008" transform="translate(183.698)" fill="#1b6ec3"/>
    </g>
    <text id="長野県信用保証協会職員" transform="translate(3349.472 7798.965)" fill="#fff" font-size="16" font-family="ZenKakuGothicNew-Bold, Zen Kaku Gothic New" font-weight="700" letter-spacing="0.09em"><tspan x="-95.2" y="0">長野県信用保証協会職員</tspan></text>
    <g id="グループ_26410" data-name="グループ 26410" transform="translate(3189.96 7833.512)">
      <path id="パス_6673" data-name="パス 6673" d="M76.8,26.035h-57a6,6,0,0,1-5.82-6.164V19.6a6,6,0,0,1,5.82-6.164h57A6,6,0,0,1,82.62,19.6v.269A6,6,0,0,1,76.8,26.035" transform="translate(7.751 2.329)" fill="#74caf3"/>
      <path id="パス_6674" data-name="パス 6674" d="M.129,70.975,18.4,4.59c.716-3.09,4.209-5.1,7.8-4.479s5.924,3.62,5.209,6.709L13.139,73.205c-.717,3.09-4.209,5.1-7.8,4.48S-.587,74.065.129,70.975" transform="matrix(0.996, -0.087, 0.087, 0.996, 0, 17.179)" fill="#0099db"/>
      <path id="パス_6676" data-name="パス 6676" d="M42.552,43.824,46.617,27.83a4.364,4.364,0,0,1,5.362-2.986,4.284,4.284,0,0,1,3.052,5.27L50.966,46.109A4.364,4.364,0,0,1,45.6,49.094a4.284,4.284,0,0,1-3.052-5.27" transform="translate(20.902 6.866)" fill="#0099db"/>
      <path id="パス_6677" data-name="パス 6677" d="M22.221,43.364,26.286,27.37a4.364,4.364,0,0,1,5.362-2.986,4.284,4.284,0,0,1,3.052,5.27L30.635,45.649a4.364,4.364,0,0,1-5.362,2.986,4.284,4.284,0,0,1-3.052-5.27" transform="translate(10.568 7.326)" fill="#1b6ec3"/>
      <path id="パス_6680" data-name="パス 6680" d="M36.792,70.917V50.286a5.994,5.994,0,1,1,11.988,0V70.917a5.993,5.993,0,0,1-5.994,5.994H43.3c-3.311,0-6.5-2.684-6.5-5.994" transform="translate(16.299 14.062)" fill="#74caf3"/>
      <path id="パス_6681" data-name="パス 6681" d="M45.464,40.8a7.308,7.308,0,1,1-7.309-7.309A7.309,7.309,0,0,1,45.464,40.8" transform="translate(12.801 7.769)" fill="#16b3ee"/>
      <path id="パス_6682" data-name="パス 6682" d="M66.008,40.8A7.308,7.308,0,1,1,58.7,33.488,7.309,7.309,0,0,1,66.008,40.8" transform="translate(23.592 7.769)" fill="#47ae95"/>
      <path id="パス_6683" data-name="パス 6683" d="M45.967,6.646A6.645,6.645,0,1,1,39.322,0a6.644,6.644,0,0,1,6.645,6.645" transform="translate(18.294 -0.001)" fill="#16b3ee"/>
      <path id="パス_6694" data-name="パス 6694" d="M65.043,59.944H32.319a5.229,5.229,0,1,1,0-10.456H65.043a5.229,5.229,0,1,1,0,10.456" transform="translate(10.4 15.711)" fill="#0099db"/>
      <path id="パス_6698" data-name="パス 6698" d="M79.119,71.623H22.906a5.242,5.242,0,0,1-5.383-5.089v-.1a5.242,5.242,0,0,1,5.383-5.089H79.119A5.242,5.242,0,0,1,84.5,66.439v.1a5.242,5.242,0,0,1-5.383,5.089" transform="translate(7.241 20.549)" fill="#007bc5"/>
    </g>
    <g id="グループ_26409" data-name="グループ 26409" transform="translate(3296.481 7833.119)">
      <path id="パス_6684" data-name="パス 6684" d="M24.46,81.847A6.664,6.664,0,1,1,17.8,75.183a6.663,6.663,0,0,1,6.664,6.664" transform="translate(2.882 -75.183)" fill="#16b3ee"/>
      <path id="パス_6685" data-name="パス 6685" d="M46.276,85.961a5.954,5.954,0,1,1-5.953-5.953,5.952,5.952,0,0,1,5.953,5.953" transform="translate(13.051 -68.16)" fill="#3199d8"/>
      <path id="パス_6686" data-name="パス 6686" d="M67.772,86.063a5.7,5.7,0,1,1-5.7-5.7,5.7,5.7,0,0,1,5.7,5.7" transform="translate(24.672 -68.513)" fill="#16b3ee"/>
      <path id="パス_6687" data-name="パス 6687" d="M37.458,129.437a16.9,16.9,0,1,1-16.9-16.9,16.9,16.9,0,0,1,16.9,16.9" transform="translate(1.04 -52.495)" fill="#16b3ee"/>
      <path id="パス_6688" data-name="パス 6688" d="M27.823,127.812a8.8,8.8,0,1,1-8.8-8.8,8.8,8.8,0,0,1,8.8,8.8" transform="translate(2.52 -51.062)" fill="#005eae"/>
      <path id="パス_6689" data-name="パス 6689" d="M37.431,110.761,52.3,82.53a6.059,6.059,0,1,1,10.672,5.741L48.1,116.5a6.059,6.059,0,0,1-10.672-5.741" transform="translate(14.516 -71.507)" fill="#007dcb"/>
      <path id="パス_6690" data-name="パス 6690" d="M69.789,103.089l-11.6-15.16c-2.336-3.1-6.486-3.912-9.268-1.814s-3.145,6.309-.809,9.409l11.6,15.16c2.336,3.1,6.486,3.912,9.269,1.814s3.145-6.309.809-9.409" transform="translate(18.15 -65.116)" fill="#16b3ee"/>
      <path id="パス_6691" data-name="パス 6691" d="M44.8,114.188a6.573,6.573,0,1,1-6.574-6.574,6.574,6.574,0,0,1,6.574,6.574" transform="translate(13.967 -54.157)" fill="#16b3ee"/>
      <path id="パス_6692" data-name="パス 6692" d="M69.4,114.33a6.158,6.158,0,1,1-6.157-6.157A6.158,6.158,0,0,1,69.4,114.33" transform="translate(23.698 -53.868)" fill="#1b6ec3"/>
      <path id="パス_6693" data-name="パス 6693" d="M.706,34.978,16.66,3.254A6.1,6.1,0,1,1,27.445,8.942L11.489,40.666A6.1,6.1,0,0,1,.706,34.978" transform="matrix(0.999, 0.035, -0.035, 0.999, 48.953, 49.264)" fill="#27aaa8"/>
      <path id="パス_6695" data-name="パス 6695" d="M39.154,96.261H6.353A5.193,5.193,0,0,1,1.16,91.07V90.7a5.193,5.193,0,0,1,5.193-5.193h32.8A5.192,5.192,0,0,1,44.345,90.7v.372a5.191,5.191,0,0,1-5.191,5.191" transform="translate(-1.16 -68.963)" fill="#0099db"/>
      <path id="パス_6696" data-name="パス 6696" d="M30.408,105.073H10.82a4.939,4.939,0,0,1,0-9.879H30.408a4.939,4.939,0,0,1,0,9.879" transform="translate(-0.123 -63.523)" fill="#74caf3"/>
      <path id="パス_6697" data-name="パス 6697" d="M30.672,113.378H11a4.939,4.939,0,0,1,0-9.879h19.67a4.939,4.939,0,0,1,0,9.879" transform="translate(-0.014 -57.923)" fill="#0095b4"/>
      <path id="パス_6702" data-name="パス 6702" d="M71.578,133.936,58.785,117.218c-2.577-3.417-7.109-4.344-10.125-2.07s-3.372,6.886-.8,10.3l12.793,16.718c2.577,3.417,7.11,4.344,10.125,2.071s3.374-6.888.8-10.3" transform="translate(17.356 -51.951)" fill="#74caf3"/>
    </g>
    <g id="グループ_26411" data-name="グループ 26411" transform="translate(3404.212 7836.891)">
      <path id="パス_6675" data-name="パス 6675" d="M52.814,36.874,10.09,1.067A6.392,6.392,0,0,0,1.005,3.246,7.166,7.166,0,0,0,3.1,12.815L45.819,48.623A6.394,6.394,0,0,0,54.9,46.444a7.167,7.167,0,0,0-2.091-9.569" transform="translate(41.472 2.524) rotate(-1)" fill="#74caf3"/>
      <path id="パス_6678" data-name="パス 6678" d="M12.17,195.626l15.285-14a7.05,7.05,0,0,1,8.421-.651c2.55,1.682,2.915,4.7.813,6.739l-15.285,14a7.05,7.05,0,0,1-8.421.651c-2.55-1.682-2.914-4.7-.813-6.739" transform="translate(4.979 -117.91)" fill="#0098e7"/>
      <path id="パス_6679" data-name="パス 6679" d="M5.328,4.437,47.822.108c3.5-.6,7.157,1.395,8.157,4.466s-1.028,6.052-4.533,6.658L8.952,15.559c-3.5.605-8.015-.635-8.853-4.741C-.52,7.774,1.824,5.043,5.328,4.437" transform="translate(16.264 71.488) rotate(3)" fill="#74caf3"/>
      <path id="パス_6699" data-name="パス 6699" d="M47.259,171.821h-19c-2.347,0-4.251-2.22-4.251-4.961s1.9-4.959,4.251-4.959h19c2.347,0,4.251,2.22,4.251,4.959s-1.9,4.961-4.251,4.961" transform="translate(10.545 -127.772)" fill="#1b6ec3"/>
      <path id="パス_6700" data-name="パス 6700" d="M64.024,182.072H15.6a5.206,5.206,0,0,1,0-10.389H64.024a5.206,5.206,0,0,1,0,10.389" transform="translate(8.017 -123.294)" fill="#00aba9"/>
      <path id="パス_6701" data-name="パス 6701" d="M1.807,41.294,44.049,1.745a5.815,5.815,0,0,1,8.421.12,6.311,6.311,0,0,1-.125,8.711L10.1,50.125a5.814,5.814,0,0,1-8.421-.118,6.312,6.312,0,0,1,.125-8.712" transform="matrix(1, -0.017, 0.017, 1, 0, 0.945)" fill="#0099db"/>
      <path id="パス_6703" data-name="パス 6703" d="M67.338,195.876a14.569,14.569,0,1,1-14.569-14.569,14.568,14.568,0,0,1,14.569,14.569" transform="translate(16.849 -119.331)" fill="#00a6ea"/>
      <path id="パス_6704" data-name="パス 6704" d="M58.146,194.256a6.961,6.961,0,1,1-6.961-6.961,6.961,6.961,0,0,1,6.961,6.961" transform="translate(18.396 -117.802)" fill="#d9f0fc"/>
    </g>
  </g>
</svg>
